<svg width="24" height="24" viewBox="0 0 24 24" fill="none" xmlns="http://www.w3.org/2000/svg">
<path fill-rule="evenodd" clip-rule="evenodd" d="M14.707 5.23043C15.4446 4.3755 15.9419 3.18475 15.8058 2C14.7428 2.04047 13.4568 2.67904 12.6946 3.53296C12.0101 4.29076 11.4126 5.5016 11.5733 6.6631C12.759 6.75111 13.9693 6.08636 14.707 5.23043ZM17.366 12.75C17.3957 15.8125 20.1693 16.8313 20.2 16.8444C20.1774 16.9163 19.757 18.2961 18.739 19.7226C17.8581 20.9549 16.9445 22.1823 15.505 22.2086C14.0911 22.2339 13.6358 21.4053 12.0183 21.4053C10.4018 21.4053 9.89641 22.1822 8.55821 22.2338C7.16886 22.2833 6.10996 20.9005 5.22294 19.6722C3.40798 17.1601 2.02169 12.573 3.88372 9.47706C4.80859 7.94021 6.46088 6.96551 8.25538 6.94123C9.61915 6.91594 10.9072 7.8206 11.741 7.8206C12.5749 7.8206 14.1402 6.73296 15.7853 6.89282C16.4739 6.92014 18.4075 7.15883 19.6485 8.90004C19.5482 8.95973 17.3414 10.1903 17.366 12.75Z" fill="#0F766E"/>
</svg>
