<svg width="24" height="24" viewBox="0 0 24 24" fill="none" xmlns="http://www.w3.org/2000/svg">
<path d="M4.38525 8.32515C4.10397 8.658 3.65392 8.92053 3.20387 8.88302C3.14761 8.43297 3.36795 7.95479 3.62579 7.65944C3.90707 7.31722 4.39932 7.07344 4.7978 7.05469C4.84468 7.52349 4.66185 7.98292 4.38525 8.32515ZM4.79311 8.97209C4.14148 8.93459 3.5836 9.34245 3.27419 9.34245C2.96009 9.34245 2.4866 8.99085 1.97091 9.00022C1.30052 9.0096 0.677016 9.38933 0.334789 9.99409C-0.368417 11.2036 0.151956 12.9944 0.831721 13.9789C1.16457 14.4665 1.56305 15.0009 2.08811 14.9822C2.58505 14.9634 2.78194 14.6587 3.38201 14.6587C3.98677 14.6587 4.16023 14.9822 4.68529 14.9728C5.2291 14.9634 5.57133 14.4852 5.90418 13.9977C6.28391 13.4445 6.43861 12.9054 6.44799 12.8772C6.43861 12.8679 5.39787 12.4694 5.38849 11.2692C5.37912 10.266 6.2089 9.78781 6.2464 9.75968C5.7776 9.06586 5.04627 8.99085 4.79311 8.97209ZM8.55761 7.61256V14.9212H9.69211V12.4225H11.2626C12.6971 12.4225 13.7051 11.438 13.7051 10.0128C13.7051 8.58768 12.7159 7.61256 11.3001 7.61256H8.55761ZM9.69211 8.56892H11.0001C11.9846 8.56892 12.5471 9.09398 12.5471 10.0175C12.5471 10.9411 11.9846 11.4708 10.9954 11.4708H9.69211V8.56892ZM15.7772 14.9775C16.4898 14.9775 17.1508 14.6165 17.4508 14.0445H17.4743V14.9212H18.5244V11.2833C18.5244 10.2285 17.6805 9.54872 16.3819 9.54872C15.1771 9.54872 14.2864 10.2379 14.2536 11.1848H15.2756C15.3599 10.7348 15.7772 10.4395 16.3491 10.4395C17.043 10.4395 17.4321 10.7629 17.4321 11.3583V11.7615L16.0163 11.8459C14.6989 11.9256 13.9864 12.4647 13.9864 13.4023C13.9864 14.3493 14.7224 14.9775 15.7772 14.9775ZM16.0819 14.1102C15.4771 14.1102 15.0927 13.8195 15.0927 13.3742C15.0927 12.9147 15.4631 12.6475 16.171 12.6053L17.4321 12.5256V12.9382C17.4321 13.6226 16.8507 14.1102 16.0819 14.1102ZM19.9261 16.9089C21.0325 16.9089 21.5528 16.487 22.0076 15.2072L24 9.61904H22.8467L21.5107 13.9367H21.4872L20.1511 9.61904H18.965L20.8871 14.94L20.784 15.2634C20.6105 15.8119 20.3293 16.0229 19.8276 16.0229C19.7386 16.0229 19.5651 16.0135 19.4948 16.0041V16.8808C19.5604 16.8996 19.8417 16.9089 19.9261 16.9089Z" fill="#0F766E"/>
</svg>
