<svg width="24" height="24" viewBox="0 0 24 24" fill="none" xmlns="http://www.w3.org/2000/svg">
<path d="M4.1087 10.3913C3.49639 10.3913 3 10.8877 3 11.5C3 12.1123 3.49639 12.6087 4.1087 12.6087V10.3913ZM11.5 12.6087C12.1123 12.6087 12.6087 12.1123 12.6087 11.5C12.6087 10.8877 12.1123 10.3913 11.5 10.3913V12.6087ZM11.5 10.3913C10.8877 10.3913 10.3913 10.8877 10.3913 11.5C10.3913 12.1123 10.8877 12.6087 11.5 12.6087V10.3913ZM18.8913 12.6087C19.5036 12.6087 20 12.1123 20 11.5C20 10.8877 19.5036 10.3913 18.8913 10.3913V12.6087ZM12.6087 11.5C12.6087 10.8877 12.1123 10.3913 11.5 10.3913C10.8877 10.3913 10.3913 10.8877 10.3913 11.5H12.6087ZM10.3913 18.8913C10.3913 19.5036 10.8877 20 11.5 20C12.1123 20 12.6087 19.5036 12.6087 18.8913H10.3913ZM10.3913 11.5C10.3913 12.1123 10.8877 12.6087 11.5 12.6087C12.1123 12.6087 12.6087 12.1123 12.6087 11.5H10.3913ZM12.6087 4.1087C12.6087 3.49639 12.1123 3 11.5 3C10.8877 3 10.3913 3.49639 10.3913 4.1087H12.6087ZM4.1087 12.6087H11.5V10.3913H4.1087V12.6087ZM11.5 12.6087H18.8913V10.3913H11.5V12.6087ZM11.5 11.5H10.3913V11.5015C10.3913 11.5016 10.3913 11.5033 10.3913 11.5033C10.3913 11.5031 10.3913 11.5034 10.3913 11.5033C10.3913 11.5033 10.3913 11.5049 10.3913 11.505C10.3913 11.5049 10.3913 11.5052 10.3913 11.505C10.3913 11.5052 10.3913 11.5064 10.3913 11.5065C10.3913 11.5067 10.3913 11.508 10.3913 11.5081C10.3913 11.5083 10.3913 11.5095 10.3913 11.5096C10.3913 11.5098 10.3913 11.5111 10.3913 11.5114C10.3913 11.5115 10.3913 11.5129 10.3913 11.5132C10.3913 11.5133 10.3913 11.5149 10.3913 11.5151C10.3913 11.5148 10.3913 11.5154 10.3913 11.5151C10.3913 11.5154 10.3913 11.5163 10.3913 11.5166C10.3913 11.5163 10.3913 11.5169 10.3913 11.5166C10.3913 11.5169 10.3913 11.5179 10.3913 11.518C10.3913 11.5177 10.3913 11.5183 10.3913 11.518C10.3913 11.5183 10.3913 11.5194 10.3913 11.5197C10.3913 11.5194 10.3913 11.52 10.3913 11.5197C10.3913 11.52 10.3913 11.5211 10.3913 11.5214C10.3913 11.5211 10.3913 11.5217 10.3913 11.5214C10.3913 11.5217 10.3913 11.5229 10.3913 11.5232C10.3913 11.5228 10.3913 11.5235 10.3913 11.5232C10.3913 11.5235 10.3913 11.5248 10.3913 11.5251C10.3913 11.5248 10.3913 11.5254 10.3913 11.5251C10.3913 11.5254 10.3913 11.5268 10.3913 11.5272C10.3913 11.5268 10.3913 11.5275 10.3913 11.5272C10.3913 11.5275 10.3913 11.529 10.3913 11.5293C10.3913 11.529 10.3913 11.5296 10.3913 11.5293C10.3913 11.5297 10.3913 11.531 10.3913 11.5315C10.3913 11.531 10.3913 11.5319 10.3913 11.5315C10.3913 11.5318 10.3913 11.5334 10.3913 11.5339C10.3913 11.5334 10.3913 11.5341 10.3913 11.5339C10.3913 11.5343 10.3913 11.5358 10.3913 11.5362C10.3913 11.5358 10.3913 11.5367 10.3913 11.5362C10.3913 11.5367 10.3913 11.5384 10.3913 11.5389C10.3913 11.5384 10.3913 11.5393 10.3913 11.5389C10.3913 11.5393 10.3913 11.5411 10.3913 11.5415C10.3913 11.5411 10.3913 11.542 10.3913 11.5415C10.3913 11.542 10.3913 11.5438 10.3913 11.5443C10.3913 11.5439 10.3913 11.5448 10.3913 11.5443C10.3913 11.5449 10.3913 11.5467 10.3913 11.5472C10.3913 11.5477 10.3913 11.5482 10.3913 11.5488C10.3913 11.5492 10.3913 11.5497 10.3913 11.5503C10.3913 11.5509 10.3913 11.5513 10.3913 11.5519C10.3913 11.5523 10.3913 11.5529 10.3913 11.5534C10.3913 11.554 10.3913 11.5545 10.3913 11.5551C10.3913 11.5556 10.3913 11.5562 10.3913 11.5568C10.3913 11.5574 10.3913 11.5578 10.3913 11.5584C10.3913 11.559 10.3913 11.5596 10.3913 11.5602C10.3913 11.5608 10.3913 11.5613 10.3913 11.5619C10.3913 11.5625 10.3913 11.5631 10.3913 11.5637C10.3913 11.5643 10.3913 11.565 10.3913 11.5656C10.3913 11.5662 10.3913 11.5668 10.3913 11.5674C10.3913 11.5681 10.3913 11.5687 10.3913 11.5693C10.3913 11.5701 10.3913 11.5707 10.3913 11.5713C10.3913 11.572 10.3913 11.5726 10.3913 11.5733C10.3913 11.5739 10.3913 11.5747 10.3913 11.5752C10.3913 11.576 10.3913 11.5767 10.3913 11.5773C10.3913 11.5781 10.3913 11.5788 10.3913 11.5795C10.3913 11.5801 10.3913 11.5809 10.3913 11.5816C10.3913 11.5823 10.3913 11.5831 10.3913 11.5838C10.3913 11.5844 10.3913 11.5851 10.3913 11.5859C10.3913 11.5866 10.3913 11.5875 10.3913 11.5883C10.3913 11.589 10.3913 11.5897 10.3913 11.5905C10.3913 11.5912 10.3913 11.5919 10.3913 11.5928C10.3913 11.5936 10.3913 11.5943 10.3913 11.5952C10.3913 11.5959 10.3913 11.5968 10.3913 11.5976C10.3913 11.5983 10.3913 11.5992 10.3913 11.5999C10.3913 11.6008 10.3913 11.6017 10.3913 11.6024C10.3913 11.6033 10.3913 11.6042 10.3913 11.605C10.3913 11.6058 10.3913 11.6067 10.3913 11.6076C10.3913 11.6084 10.3913 11.6092 10.3913 11.6101C10.3913 11.611 10.3913 11.6119 10.3913 11.6128C10.3913 11.6137 10.3913 11.6146 10.3913 11.6155C10.3913 11.6163 10.3913 11.6174 10.3913 11.6183C10.3913 11.6191 10.3913 11.62 10.3913 11.6209C10.3913 11.622 10.3913 11.6228 10.3913 11.6237C10.3913 11.6248 10.3913 11.6257 10.3913 11.6267C10.3913 11.6276 10.3913 11.6286 10.3913 11.6295C10.3913 11.6305 10.3913 11.6316 10.3913 11.6325C10.3913 11.6335 10.3913 11.6345 10.3913 11.6356C10.3913 11.6364 10.3913 11.6375 10.3913 11.6385C10.3913 11.6395 10.3913 11.6406 10.3913 11.6416C10.3913 11.6427 10.3913 11.6437 10.3913 11.6447C10.3913 11.6458 10.3913 11.6468 10.3913 11.6478C10.3913 11.649 10.3913 11.65 10.3913 11.6511C10.3913 11.6523 10.3913 11.6533 10.3913 11.6543C10.3913 11.6555 10.3913 11.6565 10.3913 11.6577C10.3913 11.6588 10.3913 11.6599 10.3913 11.661C10.3913 11.6622 10.3913 11.6633 10.3913 11.6644C10.3913 11.6656 10.3913 11.6667 10.3913 11.6679C10.3913 11.6691 10.3913 11.6701 10.3913 11.6713C10.3913 11.6725 10.3913 11.6737 10.3913 11.6749C10.3913 11.6761 10.3913 11.6774 10.3913 11.6786C10.3913 11.6798 10.3913 11.6809 10.3913 11.6821C10.3913 11.6835 10.3913 11.6846 10.3913 11.6858C10.3913 11.6871 10.3913 11.6883 10.3913 11.6897C10.3913 11.6908 10.3913 11.6922 10.3913 11.6934C10.3913 11.6947 10.3913 11.696 10.3913 11.6972C10.3913 11.6985 10.3913 11.6999 10.3913 11.7012C10.3913 11.7024 10.3913 11.7037 10.3913 11.705C10.3913 11.7064 10.3913 11.7077 10.3913 11.709C10.3913 11.7104 10.3913 11.7117 10.3913 11.7132C10.3913 11.7145 10.3913 11.7158 10.3913 11.7172C10.3913 11.7186 10.3913 11.72 10.3913 11.7213C10.3913 11.7228 10.3913 11.7241 10.3913 11.7256C10.3913 11.7269 10.3913 11.7284 10.3913 11.7299C10.3913 11.7312 10.3913 11.7327 10.3913 11.7342C10.3913 11.7356 10.3913 11.737 10.3913 11.7384C10.3913 11.7399 10.3913 11.7414 10.3913 11.7429C10.3913 11.7444 10.3913 11.7458 10.3913 11.7473C10.3913 11.7489 10.3913 11.7504 10.3913 11.7519C10.3913 11.7534 10.3913 11.755 10.3913 11.7565C10.3913 11.758 10.3913 11.7596 10.3913 11.7611C10.3913 11.7627 10.3913 11.7642 10.3913 11.7658C10.3913 11.7674 10.3913 11.7689 10.3913 11.7705C10.3913 11.7721 10.3913 11.7738 10.3913 11.7754C10.3913 11.777 10.3913 11.7787 10.3913 11.7803C10.3913 11.7819 10.3913 11.7835 10.3913 11.7852C10.3913 11.7868 10.3913 11.7884 10.3913 11.79C10.3913 11.7918 10.3913 11.7934 10.3913 11.7952C10.3913 11.7968 10.3913 11.7985 10.3913 11.8002C10.3913 11.8019 10.3913 11.8036 10.3913 11.8054C10.3913 11.807 10.3913 11.8088 10.3913 11.8106C10.3913 11.8124 10.3913 11.8141 10.3913 11.8159C10.3913 11.8177 10.3913 11.8195 10.3913 11.8212C10.3913 11.823 10.3913 11.8248 10.3913 11.8265C10.3913 11.8283 10.3913 11.8301 10.3913 11.832C10.3913 11.8338 10.3913 11.8357 10.3913 11.8375C10.3913 11.8394 10.3913 11.8412 10.3913 11.8431C10.3913 11.8449 10.3913 11.8468 10.3913 11.8487C10.3913 11.8505 10.3913 11.8524 10.3913 11.8543C10.3913 11.8563 10.3913 11.8582 10.3913 11.8601C10.3913 11.862 10.3913 11.8639 10.3913 11.8659C10.3913 11.8678 10.3913 11.8699 10.3913 11.8718C10.3913 11.8737 10.3913 11.8758 10.3913 11.8777C10.3913 11.8798 10.3913 11.8817 10.3913 11.8838C10.3913 11.8857 10.3913 11.8877 10.3913 11.8898C10.3913 11.8917 10.3913 11.8938 10.3913 11.8959C10.3913 11.8979 10.3913 11.9 10.3913 11.9021C10.3913 11.9042 10.3913 11.9062 10.3913 11.9083C10.3913 11.9104 10.3913 11.9126 10.3913 11.9147C10.3913 11.9167 10.3913 11.9189 10.3913 11.921C10.3913 11.9232 10.3913 11.9253 10.3913 11.9275C10.3913 11.9296 10.3913 11.9318 10.3913 11.934C10.3913 11.9362 10.3913 11.9383 10.3913 11.9405C10.3913 11.9427 10.3913 11.945 10.3913 11.9472C10.3913 11.9494 10.3913 11.9516 10.3913 11.954C10.3913 11.9562 10.3913 11.9584 10.3913 11.9606C10.3913 11.963 10.3913 11.9652 10.3913 11.9676C10.3913 11.9698 10.3913 11.9722 10.3913 11.9744C10.3913 11.9767 10.3913 11.9791 10.3913 11.9815C10.3913 11.9837 10.3913 11.9861 10.3913 11.9884C10.3913 11.9908 10.3913 11.9931 10.3913 11.9955C10.3913 11.9979 10.3913 12.0004 10.3913 12.0028C10.3913 12.0051 10.3913 12.0076 10.3913 12.01C10.3913 12.0124 10.3913 12.0149 10.3913 12.0174C10.3913 12.0198 10.3913 12.0223 10.3913 12.0248C10.3913 12.0271 10.3913 12.0297 10.3913 12.0322C10.3913 12.0347 10.3913 12.0372 10.3913 12.0397C10.3913 12.0422 10.3913 12.0447 10.3913 12.0473C10.3913 12.0499 10.3913 12.0524 10.3913 12.0549C10.3913 12.0576 10.3913 12.0601 10.3913 12.0628C10.3913 12.0653 10.3913 12.0679 10.3913 12.0705C10.3913 12.0731 10.3913 12.0758 10.3913 12.0784C10.3913 12.0811 10.3913 12.0838 10.3913 12.0864C10.3913 12.0891 10.3913 12.0917 10.3913 12.0944C10.3913 12.0971 10.3913 12.0997 10.3913 12.1025C10.3913 12.1052 10.3913 12.108 10.3913 12.1107C10.3913 12.1135 10.3913 12.1161 10.3913 12.1189C10.3913 12.1218 10.3913 12.1244 10.3913 12.1272C10.3913 12.13 10.3913 12.1328 10.3913 12.1357C10.3913 12.1385 10.3913 12.1413 10.3913 12.1442C10.3913 12.147 10.3913 12.1498 10.3913 12.1527C10.3913 12.1556 10.3913 12.1584 10.3913 12.1614C10.3913 12.1642 10.3913 12.1671 10.3913 12.1701C10.3913 12.1729 10.3913 12.1759 10.3913 12.1788C10.3913 12.1818 10.3913 12.1847 10.3913 12.1877C10.3913 12.1906 10.3913 12.1936 10.3913 12.1966C10.3913 12.1995 10.3913 12.2026 10.3913 12.2056C10.3913 12.2087 10.3913 12.2116 10.3913 12.2147C10.3913 12.2177 10.3913 12.2208 10.3913 12.2239C10.3913 12.2269 10.3913 12.23 10.3913 12.2331C10.3913 12.2362 10.3913 12.2393 10.3913 12.2424C10.3913 12.2455 10.3913 12.2486 10.3913 12.2518C10.3913 12.2549 10.3913 12.2581 10.3913 12.2613C10.3913 12.2644 10.3913 12.2677 10.3913 12.2708C10.3913 12.274 10.3913 12.2773 10.3913 12.2805C10.3913 12.2836 10.3913 12.2869 10.3913 12.2901C10.3913 12.2934 10.3913 12.2966 10.3913 12.3C10.3913 12.3033 10.3913 12.3065 10.3913 12.3098C10.3913 12.3132 10.3913 12.3164 10.3913 12.3198C10.3913 12.3231 10.3913 12.3265 10.3913 12.3299C10.3913 12.3331 10.3913 12.3365 10.3913 12.3399C10.3913 12.3433 10.3913 12.3467 10.3913 12.3501C10.3913 12.3535 10.3913 12.3569 10.3913 12.3605C10.3913 12.3639 10.3913 12.3673 10.3913 12.3708C10.3913 12.3742 10.3913 12.3778 10.3913 12.3813C10.3913 12.3847 10.3913 12.3883 10.3913 12.3918C10.3913 12.3954 10.3913 12.3989 10.3913 12.4025C10.3913 12.406 10.3913 12.4096 10.3913 12.4131C10.3913 12.4167 10.3913 12.4204 10.3913 12.4239C10.3913 12.4275 10.3913 12.4312 10.3913 12.4349C10.3913 12.4384 10.3913 12.4421 10.3913 12.4458C10.3913 12.4493 10.3913 12.453 10.3913 12.4567C10.3913 12.4604 10.3913 12.4641 10.3913 12.468C10.3913 12.4717 10.3913 12.4754 10.3913 12.4791C10.3913 12.4829 10.3913 12.4866 10.3913 12.4904C10.3913 12.4941 10.3913 12.498 10.3913 12.5018C10.3913 12.5057 10.3913 12.5094 10.3913 12.5132C10.3913 12.517 10.3913 12.5209 10.3913 12.5249C10.3913 12.5287 10.3913 12.5326 10.3913 12.5364C10.3913 12.5404 10.3913 12.5442 10.3913 12.5482C10.3913 12.5521 10.3913 12.5561 10.3913 12.5601C10.3913 12.5641 10.3913 12.5679 10.3913 12.5719C10.3913 12.5759 10.3913 12.5799 10.3913 12.5839C10.3913 12.588 10.3913 12.592 10.3913 12.596C10.3913 12.6001 10.3913 12.6041 10.3913 12.6083C10.3913 12.6122 10.3913 12.6164 10.3913 12.6205C10.3913 12.6245 10.3913 12.6287 10.3913 12.6328C10.3913 12.6369 10.3913 12.6411 10.3913 12.6452C10.3913 12.6495 10.3913 12.6536 10.3913 12.6578C10.3913 12.6621 10.3913 12.6662 10.3913 12.6705C10.3913 12.6746 10.3913 12.6789 10.3913 12.6832C10.3913 12.6875 10.3913 12.6916 10.3913 12.6959C10.3913 12.7002 10.3913 12.7046 10.3913 12.7089C10.3913 12.7132 10.3913 12.7175 10.3913 12.7219C10.3913 12.7262 10.3913 12.7307 10.3913 12.7349C10.3913 12.7394 10.3913 12.7438 10.3913 12.7481C10.3913 12.7525 10.3913 12.757 10.3913 12.7614C10.3913 12.7658 10.3913 12.7703 10.3913 12.7749C10.3913 12.7793 10.3913 12.7837 10.3913 12.7883C10.3913 12.7927 10.3913 12.7973 10.3913 12.8019C10.3913 12.8063 10.3913 12.8109 10.3913 12.8155C10.3913 12.8201 10.3913 12.8247 10.3913 12.8293C10.3913 12.8338 10.3913 12.8384 10.3913 12.8431C10.3913 12.8477 10.3913 12.8523 10.3913 12.857C10.3913 12.8616 10.3913 12.8664 10.3913 12.8711C10.3913 12.8758 10.3913 12.8805 10.3913 12.8853C10.3913 12.8899 10.3913 12.8947 10.3913 12.8995C10.3913 12.9042 10.3913 12.9089 10.3913 12.9138C10.3913 12.9185 10.3913 12.9234 10.3913 12.9281C10.3913 12.933 10.3913 12.9379 10.3913 12.9428C10.3913 12.9475 10.3913 12.9524 10.3913 12.9573C10.3913 12.9623 10.3913 12.9672 10.3913 12.9721C10.3913 12.9769 10.3913 12.982 10.3913 12.9868C10.3913 12.9919 10.3913 12.9967 10.3913 13.0018C10.3913 13.0068 10.3913 13.0118 10.3913 13.0168C10.3913 13.0219 10.3913 13.0269 10.3913 13.0319C10.3913 13.0369 10.3913 13.0421 10.3913 13.0471C10.3913 13.0522 10.3913 13.0573 10.3913 13.0625C10.3913 13.0675 10.3913 13.0727 10.3913 13.0779C10.3913 13.0831 10.3913 13.0882 10.3913 13.0934C10.3913 13.0986 10.3913 13.1038 10.3913 13.1091C10.3913 13.1143 10.3913 13.1194 10.3913 13.1248C10.3913 13.1301 10.3913 13.1353 10.3913 13.1406C10.3913 13.1459 10.3913 13.1512 10.3913 13.1565C10.3913 13.1619 10.3913 13.1672 10.3913 13.1725C10.3913 13.1778 10.3913 13.1833 10.3913 13.1886C10.3913 13.1941 10.3913 13.1994 10.3913 13.2049C10.3913 13.2103 10.3913 13.2158 10.3913 13.2213C10.3913 13.2268 10.3913 13.2322 10.3913 13.2377C10.3913 13.2432 10.3913 13.2486 10.3913 13.2543C10.3913 13.2597 10.3913 13.2653 10.3913 13.271C10.3913 13.2764 10.3913 13.282 10.3913 13.2877C10.3913 13.2933 10.3913 13.2989 10.3913 13.3045C10.3913 13.3101 10.3913 13.3157 10.3913 13.3215C10.3913 13.3271 10.3913 13.3329 10.3913 13.3385C10.3913 13.3443 10.3913 13.35 10.3913 13.3558C10.3913 13.3614 10.3913 13.3672 10.3913 13.3731C10.3913 13.3789 10.3913 13.3846 10.3913 13.3904C10.3913 13.3963 10.3913 13.4021 10.3913 13.408C10.3913 13.4138 10.3913 13.4197 10.3913 13.4256C10.3913 13.4315 10.3913 13.4374 10.3913 13.4433C10.3913 13.4492 10.3913 13.4551 10.3913 13.4611C10.3913 13.4671 10.3913 13.473 10.3913 13.4791C10.3913 13.485 10.3913 13.4911 10.3913 13.4971C10.3913 13.503 10.3913 13.5091 10.3913 13.5152C10.3913 13.5214 10.3913 13.5274 10.3913 13.5335C10.3913 13.5396 10.3913 13.5458 10.3913 13.5518C10.3913 13.558 10.3913 13.5642 10.3913 13.5703C10.3913 13.5765 10.3913 13.5827 10.3913 13.5889C10.3913 13.5951 10.3913 13.6013 10.3913 13.6077C10.3913 13.6139 10.3913 13.6201 10.3913 13.6265C10.3913 13.6328 10.3913 13.639 10.3913 13.6454C10.3913 13.6518 10.3913 13.6581 10.3913 13.6645C10.3913 13.6708 10.3913 13.6772 10.3913 13.6835C10.3913 13.69 10.3913 13.6964 10.3913 13.7029C10.3913 13.7093 10.3913 13.7158 10.3913 13.7223C10.3913 13.7288 10.3913 13.7353 10.3913 13.7418C10.3913 13.7483 10.3913 13.7548 10.3913 13.7613C10.3913 13.7679 10.3913 13.7745 10.3913 13.7811C10.3913 13.7876 10.3913 13.7943 10.3913 13.8009C10.3913 13.8076 10.3913 13.8142 10.3913 13.8209C10.3913 13.8275 10.3913 13.8342 10.3913 13.841C10.3913 13.8476 10.3913 13.8544 10.3913 13.8611C10.3913 13.8679 10.3913 13.8747 10.3913 13.8813C10.3913 13.8881 10.3913 13.8949 10.3913 13.9019C10.3913 13.9087 10.3913 13.9155 10.3913 13.9223C10.3913 13.9292 10.3913 13.936 10.3913 13.943C10.3913 13.9499 10.3913 13.9569 10.3913 13.9638C10.3913 13.9706 10.3913 13.9777 10.3913 13.9847C10.3913 13.9916 10.3913 13.9986 10.3913 14.0057C10.3913 14.0126 10.3913 14.0197 10.3913 14.0268C10.3913 14.0337 10.3913 14.0408 10.3913 14.0479C10.3913 14.055 10.3913 14.0621 10.3913 14.0694C10.3913 14.0765 10.3913 14.0836 10.3913 14.0908C10.3913 14.098 10.3913 14.1051 10.3913 14.1124C10.3913 14.1196 10.3913 14.1269 10.3913 14.1341C10.3913 14.1414 10.3913 14.1486 10.3913 14.156C10.3913 14.1632 10.3913 14.1705 10.3913 14.1779C10.3913 14.1853 10.3913 14.1925 10.3913 14.1999C10.3913 14.2073 10.3913 14.2147 10.3913 14.2221C10.3913 14.2296 10.3913 14.237 10.3913 14.2444C10.3913 14.2519 10.3913 14.2593 10.3913 14.2669C10.3913 14.2744 10.3913 14.2819 10.3913 14.2895C10.3913 14.297 10.3913 14.3046 10.3913 14.3121C10.3913 14.3196 10.3913 14.3273 10.3913 14.3349C10.3913 14.3425 10.3913 14.3502 10.3913 14.3578C10.3913 14.3655 10.3913 14.3731 10.3913 14.3808C10.3913 14.3885 10.3913 14.3964 10.3913 14.404C10.3913 14.4117 10.3913 14.4196 10.3913 14.4274C10.3913 14.4351 10.3913 14.4429 10.3913 14.4508C10.3913 14.4586 10.3913 14.4664 10.3913 14.4743C10.3913 14.4822 10.3913 14.4901 10.3913 14.4979C10.3913 14.5059 10.3913 14.5139 10.3913 14.5217C10.3913 14.5297 10.3913 14.5377 10.3913 14.5457C10.3913 14.5536 10.3913 14.5618 10.3913 14.5698C10.3913 14.5777 10.3913 14.5859 10.3913 14.5939C10.3913 14.602 10.3913 14.6101 10.3913 14.6182C10.3913 14.6264 10.3913 14.6345 10.3913 14.6426C10.3913 14.6508 10.3913 14.659 10.3913 14.6672C10.3913 14.6755 10.3913 14.6836 10.3913 14.6919C10.3913 14.7001 10.3913 14.7084 10.3913 14.7167C10.3913 14.725 10.3913 14.7333 10.3913 14.7417C10.3913 14.75 10.3913 14.7582 10.3913 14.7667C10.3913 14.7751 10.3913 14.7835 10.3913 14.7918C10.3913 14.8002 10.3913 14.8088 10.3913 14.8172C10.3913 14.8256 10.3913 14.8341 10.3913 14.8426C10.3913 14.8511 10.3913 14.8596 10.3913 14.8682C10.3913 14.8768 10.3913 14.8854 10.3913 14.8939C10.3913 14.9025 10.3913 14.9111 10.3913 14.9198C10.3913 14.9284 10.3913 14.9371 10.3913 14.9457C10.3913 14.9544 10.3913 14.9631 10.3913 14.9718C10.3913 14.9806 10.3913 14.9893 10.3913 14.998C10.3913 15.0069 10.3913 15.0156 10.3913 15.0245C10.3913 15.0332 10.3913 15.0421 10.3913 15.0509C10.3913 15.0598 10.3913 15.0687 10.3913 15.0775C10.3913 15.0864 10.3913 15.0954 10.3913 15.1043C10.3913 15.1133 10.3913 15.1222 10.3913 15.1312C10.3913 15.1402 10.3913 15.1492 10.3913 15.1583C10.3913 15.1673 10.3913 15.1764 10.3913 15.1855C10.3913 15.1945 10.3913 15.2036 10.3913 15.2128C10.3913 15.2218 10.3913 15.231 10.3913 15.2401C10.3913 15.2493 10.3913 15.2585 10.3913 15.2678C10.3913 15.277 10.3913 15.2861 10.3913 15.2954C10.3913 15.3047 10.3913 15.3139 10.3913 15.3232C10.3913 15.3325 10.3913 15.3419 10.3913 15.3513C10.3913 15.3606 10.3913 15.3699 10.3913 15.3794C10.3913 15.3887 10.3913 15.3982 10.3913 15.4076C10.3913 15.4171 10.3913 15.4266 10.3913 15.436C10.3913 15.4455 10.3913 15.4549 10.3913 15.4645C10.3913 15.474 10.3913 15.4836 10.3913 15.4932C10.3913 15.5027 10.3913 15.5123 10.3913 15.5221C10.3913 15.5317 10.3913 15.5413 10.3913 15.5509C10.3913 15.5606 10.3913 15.5702 10.3913 15.58C10.3913 15.5898 10.3913 15.5995 10.3913 15.6093C10.3913 15.619 10.3913 15.6288 10.3913 15.6385C10.3913 15.6483 10.3913 15.6582 10.3913 15.6681C10.3913 15.6779 10.3913 15.6878 10.3913 15.6977C10.3913 15.7076 10.3913 15.7175 10.3913 15.7274C10.3913 15.7374 10.3913 15.7473 10.3913 15.7574C10.3913 15.7673 10.3913 15.7773 10.3913 15.7874C10.3913 15.7975 10.3913 15.8075 10.3913 15.8176C10.3913 15.8278 10.3913 15.8378 10.3913 15.848C10.3913 15.8581 10.3913 15.8683 10.3913 15.8785C10.3913 15.8887 10.3913 15.8989 10.3913 15.9091C10.3913 15.9193 10.3913 15.9295 10.3913 15.9398C10.3913 15.95 10.3913 15.9604 10.3913 15.9707C10.3913 15.9811 10.3913 15.9914 10.3913 16.0017C10.3913 16.0121 10.3913 16.0224 10.3913 16.0329C10.3913 16.0433 10.3913 16.0538 10.3913 16.0643C10.3913 16.0748 10.3913 16.0853 10.3913 16.0958C10.3913 16.1063 10.3913 16.1168 10.3913 16.1274C10.3913 16.1379 10.3913 16.1485 10.3913 16.1592C10.3913 16.1697 10.3913 16.1803 10.3913 16.1911C10.3913 16.2018 10.3913 16.2124 10.3913 16.223C10.3913 16.2338 10.3913 16.2445 10.3913 16.2553C10.3913 16.2661 10.3913 16.2769 10.3913 16.2876C10.3913 16.2984 10.3913 16.3092 10.3913 16.3202C10.3913 16.331 10.3913 16.3419 10.3913 16.3528C10.3913 16.3636 10.3913 16.3746 10.3913 16.3855C10.3913 16.3966 10.3913 16.4075 10.3913 16.4185C10.3913 16.4296 10.3913 16.4405 10.3913 16.4516C10.3913 16.4627 10.3913 16.4738 10.3913 16.4848C10.3913 16.4959 10.3913 16.507 10.3913 16.5183C10.3913 16.5293 10.3913 16.5406 10.3913 16.5518C10.3913 16.5629 10.3913 16.5741 10.3913 16.5854C10.3913 16.5966 10.3913 16.608 10.3913 16.6192C10.3913 16.6306 10.3913 16.6418 10.3913 16.6532C10.3913 16.6646 10.3913 16.676 10.3913 16.6874C10.3913 16.6987 10.3913 16.7101 10.3913 16.7217C10.3913 16.733 10.3913 16.7446 10.3913 16.7561C10.3913 16.7675 10.3913 16.779 10.3913 16.7907C10.3913 16.8022 10.3913 16.8138 10.3913 16.8254C10.3913 16.837 10.3913 16.8486 10.3913 16.8602C10.3913 16.8719 10.3913 16.8835 10.3913 16.8952C10.3913 16.907 10.3913 16.9187 10.3913 16.9305C10.3913 16.9422 10.3913 16.954 10.3913 16.9659C10.3913 16.9775 10.3913 16.9894 10.3913 17.0013C10.3913 17.0132 10.3913 17.025 10.3913 17.037C10.3913 17.0488 10.3913 17.0608 10.3913 17.0727C10.3913 17.0847 10.3913 17.0967 10.3913 17.1087C10.3913 17.1206 10.3913 17.1328 10.3913 17.1447C10.3913 17.1569 10.3913 17.169 10.3913 17.1811C10.3913 17.1932 10.3913 17.2053 10.3913 17.2175C10.3913 17.2296 10.3913 17.2419 10.3913 17.254C10.3913 17.2663 10.3913 17.2785 10.3913 17.2908C10.3913 17.3031 10.3913 17.3153 10.3913 17.3276C10.3913 17.34 10.3913 17.3523 10.3913 17.3647C10.3913 17.3771 10.3913 17.3895 10.3913 17.402C10.3913 17.4144 10.3913 17.4268 10.3913 17.4392C10.3913 17.4518 10.3913 17.4642 10.3913 17.4768C10.3913 17.4893 10.3913 17.5019 10.3913 17.5145C10.3913 17.527 10.3913 17.5396 10.3913 17.5523C10.3913 17.5649 10.3913 17.5776 10.3913 17.5903C10.3913 17.603 10.3913 17.6157 10.3913 17.6284C10.3913 17.6411 10.3913 17.6539 10.3913 17.6667C10.3913 17.6794 10.3913 17.6923 10.3913 17.7051C10.3913 17.718 10.3913 17.7309 10.3913 17.7437C10.3913 17.7567 10.3913 17.7696 10.3913 17.7826C10.3913 17.7955 10.3913 17.8085 10.3913 17.8215C10.3913 17.8345 10.3913 17.8475 10.3913 17.8607C10.3913 17.8737 10.3913 17.8867 10.3913 17.8998C10.3913 17.913 10.3913 17.9261 10.3913 17.9393C10.3913 17.9525 10.3913 17.9656 10.3913 17.9789C10.3913 17.9921 10.3913 18.0054 10.3913 18.0187C10.3913 18.0318 10.3913 18.0451 10.3913 18.0586C10.3913 18.0719 10.3913 18.0852 10.3913 18.0987C10.3913 18.112 10.3913 18.1254 10.3913 18.1389C10.3913 18.1523 10.3913 18.1658 10.3913 18.1792C10.3913 18.1927 10.3913 18.2063 10.3913 18.2197C10.3913 18.2333 10.3913 18.2469 10.3913 18.2605C10.3913 18.2741 10.3913 18.2877 10.3913 18.3015C10.3913 18.3151 10.3913 18.3288 10.3913 18.3424C10.3913 18.3562 10.3913 18.3699 10.3913 18.3837C10.3913 18.3974 10.3913 18.4113 10.3913 18.4251C10.3913 18.439 10.3913 18.4527 10.3913 18.4666C10.3913 18.4805 10.3913 18.4944 10.3913 18.5083C10.3913 18.5223 10.3913 18.5362 10.3913 18.5503C10.3913 18.5642 10.3913 18.5782 10.3913 18.5923C10.3913 18.6063 10.3913 18.6203 10.3913 18.6345C10.3913 18.6486 10.3913 18.6628 10.3913 18.6768C10.3913 18.691 10.3913 18.7052 10.3913 18.7194C10.3913 18.7336 10.3913 18.7479 10.3913 18.7621C10.3913 18.7764 10.3913 18.7906 10.3913 18.805C10.3913 18.8193 10.3913 18.8337 10.3913 18.8481C10.3913 18.8625 10.3913 18.8768 10.3913 18.8913H12.6087C12.6087 18.8768 12.6087 18.8625 12.6087 18.8481C12.6087 18.8337 12.6087 18.8193 12.6087 18.805C12.6087 18.7906 12.6087 18.7764 12.6087 18.7621C12.6087 18.7479 12.6087 18.7336 12.6087 18.7194C12.6087 18.7052 12.6087 18.691 12.6087 18.6768C12.6087 18.6628 12.6087 18.6486 12.6087 18.6345C12.6087 18.6203 12.6087 18.6063 12.6087 18.5923C12.6087 18.5782 12.6087 18.5642 12.6087 18.5503C12.6087 18.5362 12.6087 18.5223 12.6087 18.5083C12.6087 18.4944 12.6087 18.4805 12.6087 18.4666C12.6087 18.4527 12.6087 18.439 12.6087 18.4251C12.6087 18.4113 12.6087 18.3974 12.6087 18.3837C12.6087 18.3699 12.6087 18.3562 12.6087 18.3424C12.6087 18.3288 12.6087 18.3151 12.6087 18.3015C12.6087 18.2877 12.6087 18.2741 12.6087 18.2605C12.6087 18.2469 12.6087 18.2333 12.6087 18.2197C12.6087 18.2063 12.6087 18.1927 12.6087 18.1792C12.6087 18.1658 12.6087 18.1523 12.6087 18.1389C12.6087 18.1254 12.6087 18.112 12.6087 18.0987C12.6087 18.0852 12.6087 18.0719 12.6087 18.0586C12.6087 18.0451 12.6087 18.0318 12.6087 18.0187C12.6087 18.0054 12.6087 17.9921 12.6087 17.9789C12.6087 17.9656 12.6087 17.9525 12.6087 17.9393C12.6087 17.9261 12.6087 17.913 12.6087 17.8998C12.6087 17.8867 12.6087 17.8737 12.6087 17.8607C12.6087 17.8475 12.6087 17.8345 12.6087 17.8215C12.6087 17.8085 12.6087 17.7955 12.6087 17.7826C12.6087 17.7696 12.6087 17.7567 12.6087 17.7437C12.6087 17.7309 12.6087 17.718 12.6087 17.7051C12.6087 17.6923 12.6087 17.6794 12.6087 17.6667C12.6087 17.6539 12.6087 17.6411 12.6087 17.6284C12.6087 17.6157 12.6087 17.603 12.6087 17.5903C12.6087 17.5776 12.6087 17.5649 12.6087 17.5523C12.6087 17.5396 12.6087 17.527 12.6087 17.5145C12.6087 17.5019 12.6087 17.4893 12.6087 17.4768C12.6087 17.4642 12.6087 17.4518 12.6087 17.4392C12.6087 17.4268 12.6087 17.4144 12.6087 17.402C12.6087 17.3895 12.6087 17.3771 12.6087 17.3647C12.6087 17.3523 12.6087 17.34 12.6087 17.3276C12.6087 17.3153 12.6087 17.3031 12.6087 17.2908C12.6087 17.2785 12.6087 17.2663 12.6087 17.254C12.6087 17.2419 12.6087 17.2296 12.6087 17.2175C12.6087 17.2053 12.6087 17.1932 12.6087 17.1811C12.6087 17.169 12.6087 17.1569 12.6087 17.1447C12.6087 17.1328 12.6087 17.1206 12.6087 17.1087C12.6087 17.0967 12.6087 17.0847 12.6087 17.0727C12.6087 17.0608 12.6087 17.0488 12.6087 17.037C12.6087 17.025 12.6087 17.0132 12.6087 17.0013C12.6087 16.9894 12.6087 16.9775 12.6087 16.9659C12.6087 16.954 12.6087 16.9422 12.6087 16.9305C12.6087 16.9187 12.6087 16.907 12.6087 16.8952C12.6087 16.8835 12.6087 16.8719 12.6087 16.8602C12.6087 16.8486 12.6087 16.837 12.6087 16.8254C12.6087 16.8138 12.6087 16.8022 12.6087 16.7907C12.6087 16.779 12.6087 16.7675 12.6087 16.7561C12.6087 16.7446 12.6087 16.733 12.6087 16.7217C12.6087 16.7101 12.6087 16.6987 12.6087 16.6874C12.6087 16.676 12.6087 16.6646 12.6087 16.6532C12.6087 16.6418 12.6087 16.6306 12.6087 16.6192C12.6087 16.608 12.6087 16.5966 12.6087 16.5854C12.6087 16.5741 12.6087 16.5629 12.6087 16.5518C12.6087 16.5406 12.6087 16.5293 12.6087 16.5183C12.6087 16.507 12.6087 16.4959 12.6087 16.4848C12.6087 16.4738 12.6087 16.4627 12.6087 16.4516C12.6087 16.4405 12.6087 16.4296 12.6087 16.4185C12.6087 16.4075 12.6087 16.3966 12.6087 16.3855C12.6087 16.3746 12.6087 16.3636 12.6087 16.3528C12.6087 16.3419 12.6087 16.331 12.6087 16.3202C12.6087 16.3092 12.6087 16.2984 12.6087 16.2876C12.6087 16.2769 12.6087 16.2661 12.6087 16.2553C12.6087 16.2445 12.6087 16.2338 12.6087 16.223C12.6087 16.2124 12.6087 16.2018 12.6087 16.1911C12.6087 16.1803 12.6087 16.1697 12.6087 16.1592C12.6087 16.1485 12.6087 16.1379 12.6087 16.1274C12.6087 16.1168 12.6087 16.1063 12.6087 16.0958C12.6087 16.0853 12.6087 16.0748 12.6087 16.0643C12.6087 16.0538 12.6087 16.0433 12.6087 16.0329C12.6087 16.0224 12.6087 16.0121 12.6087 16.0017C12.6087 15.9914 12.6087 15.9811 12.6087 15.9707C12.6087 15.9604 12.6087 15.95 12.6087 15.9398C12.6087 15.9295 12.6087 15.9193 12.6087 15.9091C12.6087 15.8989 12.6087 15.8887 12.6087 15.8785C12.6087 15.8683 12.6087 15.8581 12.6087 15.848C12.6087 15.8378 12.6087 15.8278 12.6087 15.8176C12.6087 15.8075 12.6087 15.7975 12.6087 15.7874C12.6087 15.7773 12.6087 15.7673 12.6087 15.7574C12.6087 15.7473 12.6087 15.7374 12.6087 15.7274C12.6087 15.7175 12.6087 15.7076 12.6087 15.6977C12.6087 15.6878 12.6087 15.6779 12.6087 15.6681C12.6087 15.6582 12.6087 15.6483 12.6087 15.6385C12.6087 15.6288 12.6087 15.619 12.6087 15.6093C12.6087 15.5995 12.6087 15.5898 12.6087 15.58C12.6087 15.5702 12.6087 15.5606 12.6087 15.5509C12.6087 15.5413 12.6087 15.5317 12.6087 15.5221C12.6087 15.5123 12.6087 15.5027 12.6087 15.4932C12.6087 15.4836 12.6087 15.474 12.6087 15.4645C12.6087 15.4549 12.6087 15.4455 12.6087 15.436C12.6087 15.4266 12.6087 15.4171 12.6087 15.4076C12.6087 15.3982 12.6087 15.3887 12.6087 15.3794C12.6087 15.3699 12.6087 15.3606 12.6087 15.3513C12.6087 15.3419 12.6087 15.3325 12.6087 15.3232C12.6087 15.3139 12.6087 15.3047 12.6087 15.2954C12.6087 15.2861 12.6087 15.277 12.6087 15.2678C12.6087 15.2585 12.6087 15.2493 12.6087 15.2401C12.6087 15.231 12.6087 15.2218 12.6087 15.2128C12.6087 15.2036 12.6087 15.1945 12.6087 15.1855C12.6087 15.1764 12.6087 15.1673 12.6087 15.1583C12.6087 15.1492 12.6087 15.1402 12.6087 15.1312C12.6087 15.1222 12.6087 15.1133 12.6087 15.1043C12.6087 15.0954 12.6087 15.0864 12.6087 15.0775C12.6087 15.0687 12.6087 15.0598 12.6087 15.0509C12.6087 15.0421 12.6087 15.0332 12.6087 15.0245C12.6087 15.0156 12.6087 15.0069 12.6087 14.998C12.6087 14.9893 12.6087 14.9806 12.6087 14.9718C12.6087 14.9631 12.6087 14.9544 12.6087 14.9457C12.6087 14.9371 12.6087 14.9284 12.6087 14.9198C12.6087 14.9111 12.6087 14.9025 12.6087 14.8939C12.6087 14.8854 12.6087 14.8768 12.6087 14.8682C12.6087 14.8596 12.6087 14.8511 12.6087 14.8426C12.6087 14.8341 12.6087 14.8256 12.6087 14.8172C12.6087 14.8088 12.6087 14.8002 12.6087 14.7918C12.6087 14.7835 12.6087 14.7751 12.6087 14.7667C12.6087 14.7582 12.6087 14.75 12.6087 14.7417C12.6087 14.7333 12.6087 14.725 12.6087 14.7167C12.6087 14.7084 12.6087 14.7001 12.6087 14.6919C12.6087 14.6836 12.6087 14.6755 12.6087 14.6672C12.6087 14.659 12.6087 14.6508 12.6087 14.6426C12.6087 14.6345 12.6087 14.6264 12.6087 14.6182C12.6087 14.6101 12.6087 14.602 12.6087 14.5939C12.6087 14.5859 12.6087 14.5777 12.6087 14.5698C12.6087 14.5618 12.6087 14.5536 12.6087 14.5457C12.6087 14.5377 12.6087 14.5297 12.6087 14.5217C12.6087 14.5139 12.6087 14.5059 12.6087 14.4979C12.6087 14.4901 12.6087 14.4822 12.6087 14.4743C12.6087 14.4664 12.6087 14.4586 12.6087 14.4508C12.6087 14.4429 12.6087 14.4351 12.6087 14.4274C12.6087 14.4196 12.6087 14.4117 12.6087 14.404C12.6087 14.3964 12.6087 14.3885 12.6087 14.3808C12.6087 14.3731 12.6087 14.3655 12.6087 14.3578C12.6087 14.3502 12.6087 14.3425 12.6087 14.3349C12.6087 14.3273 12.6087 14.3196 12.6087 14.3121C12.6087 14.3046 12.6087 14.297 12.6087 14.2895C12.6087 14.2819 12.6087 14.2744 12.6087 14.2669C12.6087 14.2593 12.6087 14.2519 12.6087 14.2444C12.6087 14.237 12.6087 14.2296 12.6087 14.2221C12.6087 14.2147 12.6087 14.2073 12.6087 14.1999C12.6087 14.1925 12.6087 14.1853 12.6087 14.1779C12.6087 14.1705 12.6087 14.1632 12.6087 14.156C12.6087 14.1486 12.6087 14.1414 12.6087 14.1341C12.6087 14.1269 12.6087 14.1196 12.6087 14.1124C12.6087 14.1051 12.6087 14.098 12.6087 14.0908C12.6087 14.0836 12.6087 14.0765 12.6087 14.0694C12.6087 14.0621 12.6087 14.055 12.6087 14.0479C12.6087 14.0408 12.6087 14.0337 12.6087 14.0268C12.6087 14.0197 12.6087 14.0126 12.6087 14.0057C12.6087 13.9986 12.6087 13.9916 12.6087 13.9847C12.6087 13.9777 12.6087 13.9706 12.6087 13.9638C12.6087 13.9569 12.6087 13.9499 12.6087 13.943C12.6087 13.936 12.6087 13.9292 12.6087 13.9223C12.6087 13.9155 12.6087 13.9087 12.6087 13.9019C12.6087 13.8949 12.6087 13.8881 12.6087 13.8813C12.6087 13.8747 12.6087 13.8679 12.6087 13.8611C12.6087 13.8544 12.6087 13.8476 12.6087 13.841C12.6087 13.8342 12.6087 13.8275 12.6087 13.8209C12.6087 13.8142 12.6087 13.8076 12.6087 13.8009C12.6087 13.7943 12.6087 13.7876 12.6087 13.7811C12.6087 13.7745 12.6087 13.7679 12.6087 13.7613C12.6087 13.7548 12.6087 13.7483 12.6087 13.7418C12.6087 13.7353 12.6087 13.7288 12.6087 13.7223C12.6087 13.7158 12.6087 13.7093 12.6087 13.7029C12.6087 13.6964 12.6087 13.69 12.6087 13.6835C12.6087 13.6772 12.6087 13.6708 12.6087 13.6645C12.6087 13.6581 12.6087 13.6518 12.6087 13.6454C12.6087 13.639 12.6087 13.6328 12.6087 13.6265C12.6087 13.6201 12.6087 13.6139 12.6087 13.6077C12.6087 13.6013 12.6087 13.5951 12.6087 13.5889C12.6087 13.5827 12.6087 13.5765 12.6087 13.5703C12.6087 13.5642 12.6087 13.558 12.6087 13.5518C12.6087 13.5458 12.6087 13.5396 12.6087 13.5335C12.6087 13.5274 12.6087 13.5214 12.6087 13.5152C12.6087 13.5091 12.6087 13.503 12.6087 13.4971C12.6087 13.4911 12.6087 13.485 12.6087 13.4791C12.6087 13.473 12.6087 13.4671 12.6087 13.4611C12.6087 13.4551 12.6087 13.4492 12.6087 13.4433C12.6087 13.4374 12.6087 13.4315 12.6087 13.4256C12.6087 13.4197 12.6087 13.4138 12.6087 13.408C12.6087 13.4021 12.6087 13.3963 12.6087 13.3904C12.6087 13.3846 12.6087 13.3789 12.6087 13.3731C12.6087 13.3672 12.6087 13.3614 12.6087 13.3558C12.6087 13.35 12.6087 13.3443 12.6087 13.3385C12.6087 13.3329 12.6087 13.3271 12.6087 13.3215C12.6087 13.3157 12.6087 13.3101 12.6087 13.3045C12.6087 13.2989 12.6087 13.2933 12.6087 13.2877C12.6087 13.282 12.6087 13.2764 12.6087 13.271C12.6087 13.2653 12.6087 13.2597 12.6087 13.2543C12.6087 13.2486 12.6087 13.2432 12.6087 13.2377C12.6087 13.2322 12.6087 13.2268 12.6087 13.2213C12.6087 13.2158 12.6087 13.2103 12.6087 13.2049C12.6087 13.1994 12.6087 13.1941 12.6087 13.1886C12.6087 13.1833 12.6087 13.1778 12.6087 13.1725C12.6087 13.1672 12.6087 13.1619 12.6087 13.1565C12.6087 13.1512 12.6087 13.1459 12.6087 13.1406C12.6087 13.1353 12.6087 13.1301 12.6087 13.1248C12.6087 13.1194 12.6087 13.1143 12.6087 13.1091C12.6087 13.1038 12.6087 13.0986 12.6087 13.0934C12.6087 13.0882 12.6087 13.0831 12.6087 13.0779C12.6087 13.0727 12.6087 13.0675 12.6087 13.0625C12.6087 13.0573 12.6087 13.0522 12.6087 13.0471C12.6087 13.0421 12.6087 13.0369 12.6087 13.0319C12.6087 13.0269 12.6087 13.0219 12.6087 13.0168C12.6087 13.0118 12.6087 13.0068 12.6087 13.0018C12.6087 12.9967 12.6087 12.9919 12.6087 12.9868C12.6087 12.982 12.6087 12.9769 12.6087 12.9721C12.6087 12.9672 12.6087 12.9623 12.6087 12.9573C12.6087 12.9524 12.6087 12.9475 12.6087 12.9428C12.6087 12.9379 12.6087 12.933 12.6087 12.9281C12.6087 12.9234 12.6087 12.9185 12.6087 12.9138C12.6087 12.9089 12.6087 12.9042 12.6087 12.8995C12.6087 12.8947 12.6087 12.8899 12.6087 12.8853C12.6087 12.8805 12.6087 12.8758 12.6087 12.8711C12.6087 12.8664 12.6087 12.8616 12.6087 12.857C12.6087 12.8523 12.6087 12.8477 12.6087 12.8431C12.6087 12.8384 12.6087 12.8338 12.6087 12.8293C12.6087 12.8247 12.6087 12.8201 12.6087 12.8155C12.6087 12.8109 12.6087 12.8063 12.6087 12.8019C12.6087 12.7973 12.6087 12.7927 12.6087 12.7883C12.6087 12.7837 12.6087 12.7793 12.6087 12.7749C12.6087 12.7703 12.6087 12.7658 12.6087 12.7614C12.6087 12.757 12.6087 12.7525 12.6087 12.7481C12.6087 12.7438 12.6087 12.7394 12.6087 12.7349C12.6087 12.7307 12.6087 12.7262 12.6087 12.7219C12.6087 12.7175 12.6087 12.7132 12.6087 12.7089C12.6087 12.7046 12.6087 12.7002 12.6087 12.6959C12.6087 12.6916 12.6087 12.6875 12.6087 12.6832C12.6087 12.6789 12.6087 12.6746 12.6087 12.6705C12.6087 12.6662 12.6087 12.6621 12.6087 12.6578C12.6087 12.6536 12.6087 12.6495 12.6087 12.6452C12.6087 12.6411 12.6087 12.6369 12.6087 12.6328C12.6087 12.6287 12.6087 12.6245 12.6087 12.6205C12.6087 12.6164 12.6087 12.6122 12.6087 12.6083C12.6087 12.6041 12.6087 12.6001 12.6087 12.596C12.6087 12.592 12.6087 12.588 12.6087 12.5839C12.6087 12.5799 12.6087 12.5759 12.6087 12.5719C12.6087 12.5679 12.6087 12.5641 12.6087 12.5601C12.6087 12.5561 12.6087 12.5521 12.6087 12.5482C12.6087 12.5442 12.6087 12.5404 12.6087 12.5364C12.6087 12.5326 12.6087 12.5287 12.6087 12.5249C12.6087 12.5209 12.6087 12.517 12.6087 12.5132C12.6087 12.5094 12.6087 12.5057 12.6087 12.5018C12.6087 12.498 12.6087 12.4941 12.6087 12.4904C12.6087 12.4866 12.6087 12.4829 12.6087 12.4791C12.6087 12.4754 12.6087 12.4717 12.6087 12.468C12.6087 12.4641 12.6087 12.4604 12.6087 12.4567C12.6087 12.453 12.6087 12.4493 12.6087 12.4458C12.6087 12.4421 12.6087 12.4384 12.6087 12.4349C12.6087 12.4312 12.6087 12.4275 12.6087 12.4239C12.6087 12.4204 12.6087 12.4167 12.6087 12.4131C12.6087 12.4096 12.6087 12.406 12.6087 12.4025C12.6087 12.3989 12.6087 12.3954 12.6087 12.3918C12.6087 12.3883 12.6087 12.3847 12.6087 12.3813C12.6087 12.3778 12.6087 12.3742 12.6087 12.3708C12.6087 12.3673 12.6087 12.3639 12.6087 12.3605C12.6087 12.3569 12.6087 12.3535 12.6087 12.3501C12.6087 12.3467 12.6087 12.3433 12.6087 12.3399C12.6087 12.3365 12.6087 12.3331 12.6087 12.3299C12.6087 12.3265 12.6087 12.3231 12.6087 12.3198C12.6087 12.3164 12.6087 12.3132 12.6087 12.3098C12.6087 12.3065 12.6087 12.3033 12.6087 12.3C12.6087 12.2966 12.6087 12.2934 12.6087 12.2901C12.6087 12.2869 12.6087 12.2836 12.6087 12.2805C12.6087 12.2773 12.6087 12.274 12.6087 12.2708C12.6087 12.2677 12.6087 12.2644 12.6087 12.2613C12.6087 12.2581 12.6087 12.2549 12.6087 12.2518C12.6087 12.2486 12.6087 12.2455 12.6087 12.2424C12.6087 12.2393 12.6087 12.2362 12.6087 12.2331C12.6087 12.23 12.6087 12.2269 12.6087 12.2239C12.6087 12.2208 12.6087 12.2177 12.6087 12.2147C12.6087 12.2116 12.6087 12.2087 12.6087 12.2056C12.6087 12.2026 12.6087 12.1995 12.6087 12.1966C12.6087 12.1936 12.6087 12.1906 12.6087 12.1877C12.6087 12.1847 12.6087 12.1818 12.6087 12.1788C12.6087 12.1759 12.6087 12.1729 12.6087 12.1701C12.6087 12.1671 12.6087 12.1642 12.6087 12.1614C12.6087 12.1584 12.6087 12.1556 12.6087 12.1527C12.6087 12.1498 12.6087 12.147 12.6087 12.1442C12.6087 12.1413 12.6087 12.1385 12.6087 12.1357C12.6087 12.1328 12.6087 12.13 12.6087 12.1272C12.6087 12.1244 12.6087 12.1218 12.6087 12.1189C12.6087 12.1161 12.6087 12.1135 12.6087 12.1107C12.6087 12.108 12.6087 12.1052 12.6087 12.1025C12.6087 12.0997 12.6087 12.0971 12.6087 12.0944C12.6087 12.0917 12.6087 12.0891 12.6087 12.0864C12.6087 12.0838 12.6087 12.0811 12.6087 12.0784C12.6087 12.0758 12.6087 12.0731 12.6087 12.0705C12.6087 12.0679 12.6087 12.0653 12.6087 12.0628C12.6087 12.0601 12.6087 12.0576 12.6087 12.0549C12.6087 12.0524 12.6087 12.0499 12.6087 12.0473C12.6087 12.0447 12.6087 12.0422 12.6087 12.0397C12.6087 12.0372 12.6087 12.0347 12.6087 12.0322C12.6087 12.0297 12.6087 12.0271 12.6087 12.0248C12.6087 12.0223 12.6087 12.0198 12.6087 12.0174C12.6087 12.0149 12.6087 12.0124 12.6087 12.01C12.6087 12.0076 12.6087 12.0051 12.6087 12.0028C12.6087 12.0004 12.6087 11.9979 12.6087 11.9955C12.6087 11.9931 12.6087 11.9908 12.6087 11.9884C12.6087 11.9861 12.6087 11.9837 12.6087 11.9815C12.6087 11.9791 12.6087 11.9767 12.6087 11.9744C12.6087 11.9722 12.6087 11.9698 12.6087 11.9676C12.6087 11.9652 12.6087 11.963 12.6087 11.9606C12.6087 11.9584 12.6087 11.9562 12.6087 11.954C12.6087 11.9516 12.6087 11.9494 12.6087 11.9472C12.6087 11.945 12.6087 11.9427 12.6087 11.9405C12.6087 11.9383 12.6087 11.9362 12.6087 11.934C12.6087 11.9318 12.6087 11.9296 12.6087 11.9275C12.6087 11.9253 12.6087 11.9232 12.6087 11.921C12.6087 11.9189 12.6087 11.9167 12.6087 11.9147C12.6087 11.9126 12.6087 11.9104 12.6087 11.9083C12.6087 11.9062 12.6087 11.9042 12.6087 11.9021C12.6087 11.9 12.6087 11.8979 12.6087 11.8959C12.6087 11.8938 12.6087 11.8917 12.6087 11.8898C12.6087 11.8877 12.6087 11.8857 12.6087 11.8838C12.6087 11.8817 12.6087 11.8798 12.6087 11.8777C12.6087 11.8758 12.6087 11.8737 12.6087 11.8718C12.6087 11.8699 12.6087 11.8678 12.6087 11.8659C12.6087 11.8639 12.6087 11.862 12.6087 11.8601C12.6087 11.8582 12.6087 11.8563 12.6087 11.8543C12.6087 11.8524 12.6087 11.8505 12.6087 11.8487C12.6087 11.8468 12.6087 11.8449 12.6087 11.8431C12.6087 11.8412 12.6087 11.8394 12.6087 11.8375C12.6087 11.8357 12.6087 11.8338 12.6087 11.832C12.6087 11.8301 12.6087 11.8283 12.6087 11.8265C12.6087 11.8248 12.6087 11.823 12.6087 11.8212C12.6087 11.8195 12.6087 11.8177 12.6087 11.8159C12.6087 11.8141 12.6087 11.8124 12.6087 11.8106C12.6087 11.8088 12.6087 11.807 12.6087 11.8054C12.6087 11.8036 12.6087 11.8019 12.6087 11.8002C12.6087 11.7985 12.6087 11.7968 12.6087 11.7952C12.6087 11.7934 12.6087 11.7918 12.6087 11.79C12.6087 11.7884 12.6087 11.7868 12.6087 11.7852C12.6087 11.7835 12.6087 11.7819 12.6087 11.7803C12.6087 11.7787 12.6087 11.777 12.6087 11.7754C12.6087 11.7738 12.6087 11.7721 12.6087 11.7705C12.6087 11.7689 12.6087 11.7674 12.6087 11.7658C12.6087 11.7642 12.6087 11.7627 12.6087 11.7611C12.6087 11.7596 12.6087 11.758 12.6087 11.7565C12.6087 11.755 12.6087 11.7534 12.6087 11.7519C12.6087 11.7504 12.6087 11.7489 12.6087 11.7473C12.6087 11.7458 12.6087 11.7444 12.6087 11.7429C12.6087 11.7414 12.6087 11.7399 12.6087 11.7384C12.6087 11.737 12.6087 11.7356 12.6087 11.7342C12.6087 11.7327 12.6087 11.7312 12.6087 11.7299C12.6087 11.7284 12.6087 11.7269 12.6087 11.7256C12.6087 11.7241 12.6087 11.7228 12.6087 11.7213C12.6087 11.72 12.6087 11.7186 12.6087 11.7172C12.6087 11.7158 12.6087 11.7145 12.6087 11.7132C12.6087 11.7117 12.6087 11.7104 12.6087 11.709C12.6087 11.7077 12.6087 11.7064 12.6087 11.705C12.6087 11.7037 12.6087 11.7024 12.6087 11.7012C12.6087 11.6999 12.6087 11.6985 12.6087 11.6972C12.6087 11.696 12.6087 11.6947 12.6087 11.6934C12.6087 11.6922 12.6087 11.6908 12.6087 11.6897C12.6087 11.6883 12.6087 11.6871 12.6087 11.6858C12.6087 11.6846 12.6087 11.6835 12.6087 11.6821C12.6087 11.6809 12.6087 11.6798 12.6087 11.6786C12.6087 11.6774 12.6087 11.6761 12.6087 11.6749C12.6087 11.6737 12.6087 11.6725 12.6087 11.6713C12.6087 11.6701 12.6087 11.6691 12.6087 11.6679C12.6087 11.6667 12.6087 11.6656 12.6087 11.6644C12.6087 11.6633 12.6087 11.6622 12.6087 11.661C12.6087 11.6599 12.6087 11.6588 12.6087 11.6577C12.6087 11.6565 12.6087 11.6555 12.6087 11.6543C12.6087 11.6533 12.6087 11.6523 12.6087 11.6511C12.6087 11.65 12.6087 11.649 12.6087 11.6478C12.6087 11.6468 12.6087 11.6458 12.6087 11.6447C12.6087 11.6437 12.6087 11.6427 12.6087 11.6416C12.6087 11.6406 12.6087 11.6395 12.6087 11.6385C12.6087 11.6375 12.6087 11.6364 12.6087 11.6356C12.6087 11.6345 12.6087 11.6335 12.6087 11.6325C12.6087 11.6316 12.6087 11.6305 12.6087 11.6295C12.6087 11.6286 12.6087 11.6276 12.6087 11.6267C12.6087 11.6257 12.6087 11.6248 12.6087 11.6237C12.6087 11.6228 12.6087 11.622 12.6087 11.6209C12.6087 11.62 12.6087 11.6191 12.6087 11.6183C12.6087 11.6174 12.6087 11.6163 12.6087 11.6155C12.6087 11.6146 12.6087 11.6137 12.6087 11.6128C12.6087 11.6119 12.6087 11.611 12.6087 11.6101C12.6087 11.6092 12.6087 11.6084 12.6087 11.6076C12.6087 11.6067 12.6087 11.6058 12.6087 11.605C12.6087 11.6042 12.6087 11.6033 12.6087 11.6024C12.6087 11.6017 12.6087 11.6008 12.6087 11.5999C12.6087 11.5992 12.6087 11.5983 12.6087 11.5976C12.6087 11.5968 12.6087 11.5959 12.6087 11.5952C12.6087 11.5943 12.6087 11.5936 12.6087 11.5928C12.6087 11.5919 12.6087 11.5912 12.6087 11.5905C12.6087 11.5897 12.6087 11.589 12.6087 11.5883C12.6087 11.5875 12.6087 11.5866 12.6087 11.5859C12.6087 11.5851 12.6087 11.5844 12.6087 11.5838C12.6087 11.5831 12.6087 11.5823 12.6087 11.5816C12.6087 11.5809 12.6087 11.5801 12.6087 11.5795C12.6087 11.5788 12.6087 11.5781 12.6087 11.5773C12.6087 11.5767 12.6087 11.576 12.6087 11.5752C12.6087 11.5747 12.6087 11.5739 12.6087 11.5733C12.6087 11.5726 12.6087 11.572 12.6087 11.5713C12.6087 11.5707 12.6087 11.5701 12.6087 11.5693C12.6087 11.5687 12.6087 11.5681 12.6087 11.5674C12.6087 11.5668 12.6087 11.5662 12.6087 11.5656C12.6087 11.565 12.6087 11.5643 12.6087 11.5637C12.6087 11.5631 12.6087 11.5625 12.6087 11.5619C12.6087 11.5613 12.6087 11.5608 12.6087 11.5602C12.6087 11.5596 12.6087 11.559 12.6087 11.5584C12.6087 11.5578 12.6087 11.5574 12.6087 11.5568C12.6087 11.5562 12.6087 11.5556 12.6087 11.5551C12.6087 11.5545 12.6087 11.554 12.6087 11.5534C12.6087 11.5529 12.6087 11.5523 12.6087 11.5519C12.6087 11.5513 12.6087 11.5509 12.6087 11.5503C12.6087 11.5497 12.6087 11.5492 12.6087 11.5488C12.6087 11.5482 12.6087 11.5477 12.6087 11.5472C12.6087 11.5467 12.6087 11.5463 12.6087 11.5457C12.6087 11.5452 12.6087 11.5461 12.6087 11.5457C12.6087 11.5451 12.6087 11.5433 12.6087 11.5429C12.6087 11.5424 12.6087 11.5433 12.6087 11.5429C12.6087 11.5424 12.6087 11.5407 12.6087 11.5402C12.6087 11.5398 12.6087 11.5407 12.6087 11.5402C12.6087 11.5398 12.6087 11.538 12.6087 11.5375C12.6087 11.5371 12.6087 11.538 12.6087 11.5375C12.6087 11.5371 12.6087 11.5355 12.6087 11.535C12.6087 11.5346 12.6087 11.5353 12.6087 11.535C12.6087 11.5346 12.6087 11.533 12.6087 11.5327C12.6087 11.5322 12.6087 11.5331 12.6087 11.5327C12.6087 11.5322 12.6087 11.5307 12.6087 11.5303C12.6087 11.53 12.6087 11.5306 12.6087 11.5303C12.6087 11.53 12.6087 11.5285 12.6087 11.5282C12.6087 11.5278 12.6087 11.5285 12.6087 11.5282C12.6087 11.5278 12.6087 11.5265 12.6087 11.5262C12.6087 11.5259 12.6087 11.5265 12.6087 11.5262C12.6087 11.5259 12.6087 11.5245 12.6087 11.5242C12.6087 11.5238 12.6087 11.5245 12.6087 11.5242C12.6087 11.5239 12.6087 11.5226 12.6087 11.5223C12.6087 11.522 12.6087 11.5226 12.6087 11.5223C12.6087 11.522 12.6087 11.5208 12.6087 11.5205C12.6087 11.5203 12.6087 11.5208 12.6087 11.5205C12.6087 11.5203 12.6087 11.5192 12.6087 11.5189C12.6087 11.5186 12.6087 11.5192 12.6087 11.5189C12.6087 11.5188 12.6087 11.5176 12.6087 11.5173C12.6087 11.517 12.6087 11.5154 12.6087 11.5151C12.6087 11.5149 12.6087 11.5133 12.6087 11.5132C12.6087 11.513 12.6087 11.5115 12.6087 11.5114C12.6087 11.5112 12.6087 11.5099 12.6087 11.5096C12.6087 11.5095 12.6087 11.5084 12.6087 11.5081C12.6087 11.508 12.6087 11.5067 12.6087 11.5065C12.6087 11.5064 12.6087 11.5067 12.6087 11.5065C12.6087 11.5064 12.6087 11.5052 12.6087 11.505C12.6087 11.5049 12.6087 11.5034 12.6087 11.5033C12.6087 11.5033 12.6087 11.5019 12.6087 11.5018C12.6087 11.5016 12.6087 11.5 12.6087 11.5H11.5ZM12.6087 11.5V4.1087H10.3913V11.5H12.6087Z" fill="#0F766E"/>
</svg>
