<svg width="24" height="24" viewBox="0 0 24 24" fill="none" xmlns="http://www.w3.org/2000/svg">
<path d="M19.4988 11.25H4.49878C4.29987 11.25 4.1091 11.329 3.96845 11.4697C3.8278 11.6103 3.74878 11.8011 3.74878 12C3.74878 12.1989 3.8278 12.3897 3.96845 12.5303C4.1091 12.671 4.29987 12.75 4.49878 12.75H19.4988C19.6977 12.75 19.8885 12.671 20.0291 12.5303C20.1698 12.3897 20.2488 12.1989 20.2488 12C20.2488 11.8011 20.1698 11.6103 20.0291 11.4697C19.8885 11.329 19.6977 11.25 19.4988 11.25Z" fill="#0F766E"/>
<path d="M19.188 12L12.9675 18.219C12.8267 18.3598 12.7476 18.5508 12.7476 18.75C12.7476 18.9492 12.8267 19.1402 12.9675 19.281C13.1084 19.4218 13.2994 19.5009 13.4985 19.5009C13.6977 19.5009 13.8887 19.4218 14.0295 19.281L20.7795 12.531C20.8494 12.4613 20.9048 12.3786 20.9426 12.2875C20.9804 12.1963 20.9999 12.0987 20.9999 12C20.9999 11.9014 20.9804 11.8037 20.9426 11.7126C20.9048 11.6214 20.8494 11.5387 20.7795 11.469L14.0295 4.719C13.8887 4.57817 13.6977 4.49905 13.4985 4.49905C13.2994 4.49905 13.1084 4.57817 12.9675 4.719C12.8267 4.85983 12.7476 5.05084 12.7476 5.25C12.7476 5.44916 12.8267 5.64017 12.9675 5.781L19.188 12Z" fill="#0F766E"/>
</svg>
