<svg width="24" height="24" viewBox="0 0 24 24" fill="none" xmlns="http://www.w3.org/2000/svg">
<path d="M13.6061 19.5658H12.2898V7.39862H17.8285L15.484 11.1557C15.4551 11.2008 15.4353 11.2513 15.4259 11.3043C15.4165 11.3572 15.4176 11.4115 15.4292 11.464C15.4407 11.5165 15.4624 11.5661 15.4931 11.61C15.5238 11.654 15.5628 11.6913 15.6079 11.7198C15.6729 11.7595 15.7471 11.7811 15.8231 11.7825C15.8915 11.7821 15.9588 11.7644 16.0187 11.7309C16.0785 11.6974 16.1291 11.6492 16.1658 11.5908L18.2005 8.32775L20.2351 11.5908C20.2607 11.6413 20.2965 11.6859 20.3401 11.7217C20.3837 11.7576 20.4342 11.7838 20.4884 11.7988C20.5426 11.8138 20.5993 11.8172 20.6549 11.8088C20.7105 11.8005 20.7637 11.7805 20.8113 11.7502C20.8588 11.7198 20.8995 11.6798 20.9309 11.6327C20.9623 11.5856 20.9837 11.5324 20.9936 11.4765C21.0036 11.4205 21.0019 11.3631 20.9887 11.3079C20.9755 11.2527 20.951 11.2008 20.917 11.1557L18.5724 7.39125H18.6015C18.6877 7.39791 18.7743 7.3865 18.8558 7.35774C18.9374 7.32898 19.0122 7.28349 19.0756 7.22412C19.1389 7.16475 19.1895 7.09279 19.2241 7.01274C19.2586 6.93269 19.2765 6.84628 19.2765 6.75893C19.2765 6.67158 19.2586 6.58517 19.2241 6.50512C19.1895 6.42507 19.1389 6.3531 19.0756 6.29374C19.0122 6.23437 18.9374 6.18888 18.8558 6.16012C18.7743 6.13136 18.6877 6.11995 18.6015 6.12661H13.9963C13.7337 5.73808 13.3478 5.4519 12.9024 5.31546C12.8712 4.95635 12.708 4.62208 12.4451 4.37857C12.1822 4.13507 11.8387 4 11.4821 4C11.1256 4 10.782 4.13507 10.5191 4.37857C10.2562 4.62208 10.0931 4.95635 10.0619 5.31546C9.61703 5.45296 9.23141 5.73891 8.968 6.12661H4.36272C4.20511 6.13878 4.05787 6.21069 3.95045 6.32793C3.84302 6.44517 3.78334 6.5991 3.78334 6.75893C3.78334 6.91876 3.84302 7.07269 3.95045 7.18993C4.05787 7.30717 4.20511 7.37907 4.36272 7.39125H4.39189L2.0619 11.1557C2.00486 11.2476 1.98626 11.3587 2.01019 11.4645C2.03413 11.5702 2.09863 11.6621 2.18952 11.7198C2.25429 11.76 2.32865 11.7817 2.40465 11.7825C2.47309 11.7821 2.54035 11.7644 2.60024 11.7309C2.66013 11.6974 2.71074 11.6492 2.7474 11.5908L4.7784 8.32775L6.8021 11.5908C6.8601 11.6806 6.95066 11.7438 7.05428 11.7667C7.15789 11.7897 7.26629 11.7706 7.35614 11.7136C7.44599 11.6566 7.51011 11.5662 7.53469 11.4618C7.55928 11.3575 7.54237 11.2476 7.4876 11.1557L5.13938 7.39125H10.6745V19.5584H9.35451C8.97639 19.5584 8.61376 19.7103 8.34639 19.9806C8.07901 20.251 7.92881 20.6177 7.92881 21H15.0282C15.0262 20.6196 14.8757 20.2553 14.6093 19.9867C14.3429 19.718 13.9823 19.5667 13.6061 19.5658Z" fill="#0F766E"/>
<path d="M7.7976 12H2.2024C2.14872 12 2.09724 12.0206 2.05928 12.0573C2.02132 12.094 2 12.1438 2 12.1957C2.02632 12.9481 2.35391 13.6611 2.91365 14.1843C3.47338 14.7075 4.22146 15 5 15C5.77854 15 6.52662 14.7075 7.08635 14.1843C7.64609 13.6611 7.97368 12.9481 8 12.1957C8 12.1438 7.97868 12.094 7.94072 12.0573C7.90276 12.0206 7.85128 12 7.7976 12Z" fill="#0F766E"/>
<path d="M21.7637 12H15.2363C15.2051 11.9996 15.1742 12.0042 15.1452 12.0136C15.1163 12.023 15.0901 12.0369 15.068 12.0546C15.046 12.0723 15.0286 12.0934 15.0169 12.1166C15.0052 12.1398 14.9995 12.1647 15 12.1897C15 12.9351 15.3688 13.6499 16.0252 14.1769C16.6815 14.7039 17.5718 15 18.5 15C19.4282 15 20.3185 14.7039 20.9748 14.1769C21.6312 13.6499 22 12.9351 22 12.1897C22.0005 12.1647 21.9948 12.1398 21.9831 12.1166C21.9714 12.0934 21.954 12.0723 21.932 12.0546C21.9099 12.0369 21.8837 12.023 21.8548 12.0136C21.8258 12.0042 21.7949 11.9996 21.7637 12Z" fill="#0F766E"/>
</svg>
