<svg width="24" height="24" viewBox="0 0 24 24" fill="none" xmlns="http://www.w3.org/2000/svg">
<path d="M14.7058 1.51395C14.9323 1.23108 15.1182 1.27804 15.1638 1.30203C15.1958 1.31897 15.2282 1.35136 15.2468 1.41141C15.2658 1.4729 15.2768 1.58794 15.2126 1.76199L12.2087 9.89871L11.9607 10.5716H18.363C18.4515 10.5716 18.5018 10.6015 18.5281 10.6272C18.5548 10.6535 18.5768 10.694 18.5769 10.7542C18.5769 10.8351 18.5512 10.9282 18.4265 11.0823L18.4246 11.0852L9.3064 22.4934C9.08302 22.7694 8.89474 22.7264 8.84351 22.6995C8.80988 22.6816 8.77664 22.649 8.75854 22.5901C8.7401 22.5299 8.73077 22.4154 8.79663 22.2415L8.79761 22.2376L11.7917 14.1009L12.0388 13.429H5.64722C5.5532 13.429 5.49866 13.3973 5.47144 13.3714C5.44542 13.3465 5.42358 13.3079 5.42358 13.2454C5.42363 13.1885 5.44566 13.098 5.58569 12.9153L14.7058 1.51395Z" stroke="#0F766E"/>
</svg>
