<svg width="24" height="24" viewBox="0 0 24 24" fill="none" xmlns="http://www.w3.org/2000/svg">
<g clip-path="url(#clip0_206_193)">
<path d="M12.4356 21.9492C10.9992 23.3856 9.52269 23.4057 8.04613 21.9392L1.68793 15.591C0.221401 14.1244 0.241543 12.6378 1.67786 11.2014L11.5015 1.39787C12.2548 0.644528 12.6767 0.594299 13.7415 0.594299H17.5584C18.6231 0.594299 18.9546 0.855471 19.7079 1.60881L22.0182 3.91907C22.7816 4.68249 23.0327 5.01394 23.0327 6.07869V9.89567C23.0327 10.9503 22.9926 11.3823 22.2292 12.1356L12.4356 21.9492ZM11.3508 20.7338L21.0941 10.9905C21.295 10.7896 21.4155 10.5787 21.4155 10.2472V6.00836C21.4155 5.697 21.3051 5.48606 21.0941 5.27511L18.362 2.54297C18.141 2.33203 17.9401 2.21147 17.6187 2.21147H13.3899C13.0484 2.21147 12.8475 2.34206 12.6365 2.54297L2.8932 12.2762C2.17997 12.9894 2.16004 13.7628 2.90327 14.4961L9.13097 20.7238C9.86421 21.4671 10.6377 21.457 11.3508 20.7338ZM16.3832 8.63001C15.5997 8.63001 15.0071 8.01729 15.0071 7.25391C15.0071 6.48047 15.5997 5.87777 16.3832 5.87777C17.1667 5.87777 17.7593 6.48047 17.7593 7.25391C17.7593 8.01729 17.1667 8.63001 16.3832 8.63001Z" fill="#0F766E"/>
</g>
<defs>
<clipPath id="clip0_206_193">
<rect width="24" height="24" fill="white"/>
</clipPath>
</defs>
</svg>
