<svg width="24" height="24" viewBox="0 0 24 24" fill="none" xmlns="http://www.w3.org/2000/svg">
<path fill-rule="evenodd" clip-rule="evenodd" d="M12.5893 15.749C12.2638 16.0837 11.7362 16.0837 11.4108 15.749L7.24408 11.4632C6.91864 11.1285 6.91864 10.5858 7.24408 10.251C7.56952 9.91632 8.09715 9.91632 8.42259 10.251L12 13.9307L15.5774 10.251C15.9029 9.91632 16.4305 9.91632 16.7559 10.251C17.0814 10.5858 17.0814 11.1285 16.7559 11.4632L12.5893 15.749Z" fill="#0F766E"/>
<path d="M12 22C17.5228 22 22 17.5228 22 12C22 6.47715 17.5228 2 12 2C6.47715 2 2 6.47715 2 12C2 17.5228 6.47715 22 12 22Z" stroke="#0F766E" stroke-width="2"/>
</svg>
