<svg width="24" height="24" viewBox="0 0 24 24" fill="none" xmlns="http://www.w3.org/2000/svg">
<path d="M11.351 11.8914V14.6842H10.4644V7.7857H12.8148C13.3818 7.77363 13.9297 7.98877 14.3368 8.38286C14.749 8.75382 14.9813 9.28463 14.9722 9.83856C14.9843 10.3965 14.752 10.9313 14.3368 11.3033C13.9257 11.6954 13.418 11.8914 12.8148 11.8904L11.351 11.8914ZM11.351 8.63519V11.0439H12.8369C13.1667 11.054 13.4843 10.9243 13.7135 10.6871C14.179 10.2347 14.1901 9.48972 13.7367 9.02425C13.7286 9.01621 13.7216 9.00817 13.7135 9.00113C13.4874 8.75885 13.1677 8.62615 12.8369 8.63519H11.351ZM17.015 9.81041C17.6705 9.81041 18.1872 9.98534 18.5662 10.3352C18.9452 10.685 19.1342 11.1656 19.1342 11.7748V14.6842H18.2867V14.0287H18.2485C17.8816 14.5686 17.393 14.838 16.7838 14.838C16.264 14.838 15.8287 14.6842 15.4789 14.3756C15.1391 14.0891 14.9461 13.6648 14.9541 13.2195C14.9541 12.7309 15.1391 12.3428 15.508 12.0543C15.877 11.7658 16.3696 11.621 16.9869 11.621C17.5127 11.621 17.947 11.7175 18.2867 11.9095V11.7064C18.2888 11.4028 18.154 11.1153 17.9208 10.9223C17.6866 10.7112 17.381 10.5956 17.0653 10.5996C16.5707 10.5996 16.1786 10.8087 15.8901 11.2259L15.1099 10.7343C15.5382 10.118 16.1736 9.81041 17.015 9.81041ZM15.8679 13.2396C15.8669 13.4688 15.9765 13.6839 16.1615 13.8176C16.3575 13.9714 16.6008 14.0539 16.8501 14.0488C17.2241 14.0478 17.583 13.899 17.8474 13.6346C18.141 13.3582 18.2878 13.0345 18.2878 12.6615C18.0113 12.4413 17.6263 12.3307 17.1316 12.3307C16.7717 12.3307 16.4711 12.4172 16.2309 12.5911C15.9886 12.7681 15.8679 12.9822 15.8679 13.2396ZM24 9.96423L21.0413 16.7652H20.1265L21.2243 14.3856L19.278 9.96423H20.2411L21.6475 13.3552H21.6666L23.0349 9.96423H24Z" fill="#5F6368"/>
<path d="M7.76915 11.2882C7.76915 11.0178 7.74704 10.7484 7.70079 10.482H3.96301V12.008H6.10334C6.01487 12.5006 5.72936 12.9359 5.31215 13.2124V14.2037H6.58991C7.33787 13.515 7.76915 12.4946 7.76915 11.2882Z" fill="#4285F4"/>
<path d="M3.96298 15.1617C5.03264 15.1617 5.9334 14.8109 6.58988 14.2047L5.31212 13.2134C4.95623 13.4547 4.49881 13.5924 3.96298 13.5924C2.92951 13.5924 2.05186 12.8958 1.7382 11.9568H0.422241V12.9782C1.0948 14.3173 2.46505 15.1617 3.96298 15.1617Z" fill="#34A853"/>
<path d="M1.7382 11.9568C1.57232 11.4652 1.57232 10.9313 1.7382 10.4397V9.41833H0.422234C-0.140745 10.5383 -0.140745 11.8582 0.422234 12.9782L1.7382 11.9568Z" fill="#FBBC04"/>
<path d="M3.96298 8.8041C4.52797 8.79506 5.07386 9.00818 5.48302 9.39825L6.61501 8.26726C5.89721 7.5937 4.94719 7.22374 3.96298 7.2348C2.46505 7.2348 1.0948 8.08027 0.422241 9.41835L1.7382 10.4398C2.05186 9.50079 2.92951 8.8041 3.96298 8.8041Z" fill="#EA4335"/>
</svg>
