<svg width="24" height="24" viewBox="0 0 24 24" fill="none" xmlns="http://www.w3.org/2000/svg">
<path d="M21.9916 9.69473V18.5962C21.9912 18.7552 21.9279 18.9076 21.8155 19.0201C21.703 19.1325 21.5506 19.1959 21.3916 19.1962H2.64631C2.48706 19.1962 2.33432 19.133 2.2216 19.0205C2.10887 18.9081 2.04538 18.7554 2.04504 18.5962V9.69473C2.04538 9.5357 2.1087 9.38328 2.22115 9.27083C2.3336 9.15838 2.48602 9.09506 2.64504 9.09473H21.3903C21.5496 9.09473 21.7023 9.1579 21.815 9.27039C21.9277 9.38287 21.9912 9.53548 21.9916 9.69473ZM16.1722 14.1474C16.1704 13.1513 15.7986 12.1914 15.1291 11.454C14.4596 10.7165 13.5401 10.2539 12.5488 10.1561C11.5576 10.0582 10.5653 10.3321 9.76456 10.9244C8.96378 11.5167 8.41156 12.3854 8.21501 13.3619C8.01845 14.3383 8.19159 15.353 8.70083 16.209C9.21006 17.0651 10.0191 17.7015 10.971 17.9947C11.9229 18.288 12.9498 18.2173 13.8525 17.7963C14.7552 17.3753 15.4693 16.634 15.8564 15.7162C16.0661 15.2198 16.1735 14.6862 16.1722 14.1474ZM13.6762 14.2939C13.8959 14.5455 14.0171 14.8681 14.0173 15.2021C14.0164 15.439 13.9533 15.6716 13.8342 15.8764C13.7152 16.0813 13.5444 16.2512 13.3389 16.3693C13.1253 16.5045 12.8898 16.6015 12.6429 16.656V17.117C12.6429 17.2497 12.5902 17.3769 12.4964 17.4707C12.4026 17.5646 12.2754 17.6173 12.1427 17.6173C12.0101 17.6173 11.8828 17.5646 11.789 17.4707C11.6952 17.3769 11.6425 17.2497 11.6425 17.117V16.6623C11.4853 16.6309 11.3316 16.5835 11.184 16.5208C10.9548 16.4257 10.752 16.2767 10.5928 16.0863C10.5462 16.0373 10.5101 15.9793 10.4865 15.9159C10.463 15.8525 10.4525 15.785 10.4558 15.7175C10.4591 15.6499 10.476 15.5837 10.5056 15.5229C10.5352 15.4621 10.5768 15.4079 10.6279 15.3636C10.679 15.3193 10.7386 15.2859 10.803 15.2653C10.8674 15.2447 10.9353 15.2373 11.0027 15.2437C11.07 15.2501 11.1353 15.2701 11.1947 15.3025C11.2541 15.3348 11.3063 15.3789 11.3482 15.432C11.4036 15.5007 11.4746 15.5553 11.5554 15.5911C11.6431 15.6297 11.7345 15.6593 11.8282 15.6796C11.9258 15.6982 12.0246 15.71 12.1238 15.7149C12.3605 15.7155 12.5929 15.6513 12.7958 15.5293C13.0181 15.3853 13.0181 15.2615 13.0181 15.2008C13.0169 15.1093 12.9833 15.0212 12.9234 14.952C12.8591 14.8796 12.7831 14.8185 12.6985 14.7714C12.6106 14.7262 12.5172 14.6927 12.4206 14.6716C12.3313 14.6532 12.2402 14.6443 12.149 14.645C11.9992 14.6453 11.8497 14.6331 11.7019 14.6084C11.5017 14.5754 11.3076 14.5128 11.1259 14.4227C10.9145 14.3171 10.7281 14.1677 10.5789 13.9844C10.3725 13.7356 10.2579 13.4234 10.2543 13.1002C10.2591 12.8551 10.3269 12.6153 10.4512 12.4041C10.5756 12.1928 10.7522 12.0171 10.9642 11.8939C11.1732 11.7651 11.4026 11.6729 11.6425 11.621V11.1764C11.6425 11.0437 11.6952 10.9165 11.789 10.8227C11.8828 10.7289 12.0101 10.6762 12.1427 10.6762C12.2754 10.6762 12.4026 10.7289 12.4964 10.8227C12.5902 10.9165 12.6429 11.0437 12.6429 11.1764V11.6349C12.8037 11.6725 12.9603 11.7263 13.1103 11.7954C13.3033 11.8827 13.4791 12.0037 13.6295 12.1528C13.7167 12.2478 13.7638 12.3727 13.7611 12.5016C13.7585 12.6305 13.7061 12.7533 13.6151 12.8446C13.524 12.9358 13.4012 12.9883 13.2723 12.9913C13.1435 12.9942 13.0185 12.9472 12.9234 12.8602C12.8584 12.7965 12.7827 12.7448 12.6998 12.7074C12.6095 12.6651 12.5151 12.632 12.4181 12.6088L12.389 12.6025C12.3128 12.5831 12.235 12.57 12.1566 12.5634C11.9258 12.5629 11.6991 12.6239 11.4998 12.7402C11.431 12.7734 11.3721 12.8242 11.3291 12.8874C11.286 12.9506 11.2604 13.024 11.2547 13.1002C11.26 13.1932 11.2954 13.2819 11.3558 13.3528C11.4152 13.4262 11.4892 13.4864 11.573 13.5297C11.6657 13.5748 11.7644 13.6063 11.8661 13.6231C11.9596 13.6382 12.0543 13.6454 12.149 13.6446C12.3121 13.6443 12.4747 13.6612 12.6341 13.6951C12.8186 13.7355 12.997 13.8 13.1646 13.8871C13.358 13.9912 13.5312 14.1289 13.6762 14.2939Z" fill="#0F766E"/>
</svg>
