<svg width="24" height="24" viewBox="0 0 24 24" fill="none" xmlns="http://www.w3.org/2000/svg">
<g clip-path="url(#clip0_206_347)">
<path d="M12.8426 5.09433C12.962 5.12583 13.0879 5.14562 13.2198 5.15658L13.222 5.53599L13.6849 5.53304L13.6819 5.14557C13.7442 5.13676 13.805 5.12579 13.8636 5.11041C13.9962 5.07451 14.1104 5.02177 14.2056 4.95146C14.3008 4.88115 14.3756 4.79401 14.429 4.69069C14.484 4.58813 14.5096 4.46879 14.5089 4.33182C14.5074 4.10255 14.4364 3.92827 14.2972 3.80958C14.1588 3.69094 13.9529 3.62063 13.6834 3.5994L13.3187 3.57155C13.189 3.55838 13.096 3.52833 13.0418 3.48001C12.9861 3.43313 12.959 3.36427 12.9583 3.27568C12.9576 3.17752 12.9949 3.09624 13.0719 3.03324C13.1473 2.97169 13.2667 2.94024 13.4278 2.93949C13.5509 2.93804 13.6673 2.95266 13.7786 2.98051C13.8907 3.00835 14.0203 3.0999 14.0203 3.0999C14.0496 3.11457 14.0855 3.10871 14.1082 3.08452L14.3243 2.86187C14.3411 2.84504 14.3485 2.82085 14.3441 2.79741C14.3411 2.77398 14.3265 2.75274 14.3052 2.74173C14.3052 2.74173 14.1331 2.60916 13.9705 2.56669C13.8746 2.54105 13.7713 2.52423 13.6636 2.51471L13.6614 2.18658L13.1985 2.19024L13.2007 2.52498C13.148 2.53304 13.0967 2.5433 13.0476 2.55723C12.9297 2.59238 12.8264 2.64512 12.7385 2.71323C12.6499 2.78208 12.5811 2.86632 12.5298 2.96593C12.48 3.06629 12.4551 3.17907 12.4558 3.30502C12.4573 3.53429 12.5247 3.70491 12.6595 3.81699C12.7928 3.92832 12.9832 3.99573 13.23 4.01696L13.6453 4.05066C13.772 4.06383 13.8621 4.09533 13.9148 4.14516C13.969 4.19715 13.9954 4.26676 13.9961 4.35535C13.9969 4.47915 13.9441 4.56994 13.8364 4.62929C13.7295 4.68788 13.594 4.71718 13.4292 4.71863C13.2995 4.71938 13.1692 4.70251 13.0374 4.66735C12.9055 4.63294 12.7305 4.48351 12.7305 4.48351C12.7004 4.46518 12.6616 4.47033 12.6367 4.49448L12.4068 4.7296C12.3899 4.74498 12.3826 4.76841 12.3855 4.79185C12.3877 4.81529 12.4016 4.83582 12.4221 4.84754C12.4221 4.84754 12.661 5.04596 12.8426 5.09433Z" fill="#0F766E"/>
<path d="M13.4688 7.58016C15.5225 7.56549 17.1748 5.889 17.1602 3.83527C17.1462 1.78153 15.469 0.127737 13.4153 0.143112C11.3615 0.157784 9.70849 1.83427 9.72312 3.888C9.73709 5.94174 11.4143 7.59478 13.4688 7.58016ZM13.4219 1.0726C14.96 1.06233 16.2198 2.30381 16.2315 3.84117C16.2417 5.37999 14.9996 6.63975 13.4614 6.65077C11.9233 6.66178 10.6636 5.41955 10.6526 3.88149C10.6416 2.34342 11.8838 1.08356 13.4219 1.0726Z" fill="#0F766E"/>
<path d="M23.7849 7.88849C23.6223 7.8343 23.4465 7.92364 23.3938 8.08696C23.2561 8.50592 23.0693 8.74396 22.8591 8.90286C22.7976 8.94974 22.7317 8.98785 22.6628 9.02225C22.6965 8.89555 22.7141 8.76369 22.7126 8.63113C22.7112 8.42094 22.6636 8.2056 22.5464 8.01369C22.446 7.84742 22.3054 7.71631 22.1457 7.62988C21.9853 7.54274 21.8059 7.49802 21.6242 7.49877C21.4485 7.49952 21.2697 7.54564 21.1072 7.63794C21.1042 7.63869 21.1021 7.63939 21.0999 7.6416C21.0955 7.64305 21.0918 7.64525 21.0881 7.64746H21.0867L21.0786 7.65257C21.0779 7.65257 21.0779 7.65256 21.0772 7.65331C21.0721 7.65697 21.0669 7.66213 21.061 7.66578C21.0603 7.66578 21.0603 7.66653 21.0596 7.66653C20.9065 7.76614 20.7842 7.898 20.7022 8.0496C20.615 8.20925 20.5696 8.38869 20.5711 8.57108C20.5718 8.75783 20.623 8.94753 20.7256 9.11746C20.856 9.32985 21.0464 9.49977 21.2669 9.62502C21.3086 9.64921 21.3533 9.66899 21.398 9.68947C21.2962 9.75467 21.1812 9.81617 21.0545 9.86891C20.8868 9.93847 20.6971 9.99121 20.492 10.0205C19.7962 8.96727 18.7627 8.00122 17.284 7.19333C17.0496 7.06517 16.8086 6.9531 16.5647 6.85424C16.1545 7.28197 15.6587 7.62692 15.1028 7.85764C14.8845 7.94994 14.8618 8.13449 15.1159 8.16453C15.343 8.19092 15.5671 8.22313 15.792 8.25974L15.8 9.37742C13.9104 9.15256 12.5041 9.16208 10.6181 9.41403L10.6101 8.2971C10.9294 8.23925 11.2517 8.19238 11.5747 8.15502C11.8742 8.12206 11.8691 7.90527 11.5886 7.77196C11.059 7.52 10.5888 7.16333 10.2043 6.72974C9.02439 7.06152 7.97701 7.53613 7.20358 8.02686C5.81275 7.16042 4.58228 7.39771 4.20944 7.50978L4.73823 10.2249C3.72967 11.4913 2.91231 11.919 2.91231 11.919L0.857873 12.3401C0.567107 12.3416 0.296123 12.4903 0.13792 12.7341C-0.0195335 12.9788 -0.043721 13.2857 0.0727165 13.5515L1.68404 18.0413C1.82392 18.3569 2.13667 18.5599 2.48167 18.5569L5.86033 19.2395L7.30829 22.8116C8.0312 24.3811 9.93404 24.0384 10.0007 22.7413L10.2929 20.9615L15.2214 20.9263C15.2214 20.9263 15.3796 21.7173 15.4602 22.3985C15.5818 23.4261 17.103 24.7488 18.6125 22.6805C20.3506 20.2993 23.1111 14.8538 20.8281 10.586C21.1152 10.5193 21.376 10.4189 21.5965 10.2952C21.7854 10.189 21.948 10.0681 22.0835 9.94363C22.1334 9.89821 22.178 9.85208 22.2197 9.80591C22.2227 9.80516 22.2256 9.80516 22.2286 9.80371L22.2293 9.80516C22.5596 9.74731 22.9141 9.63889 23.2327 9.40011C23.5521 9.16133 23.8179 8.79439 23.9849 8.27952C24.0376 8.11555 23.9482 7.94122 23.7849 7.88849ZM22.0396 8.93952C22.0066 9.03622 21.9575 9.12702 21.9011 9.20028C21.7942 9.18491 21.6777 9.1446 21.573 9.08455C21.4331 9.00692 21.316 8.89485 21.2574 8.79524V8.79599C21.2127 8.72272 21.1922 8.6451 21.1922 8.56672C21.1914 8.49055 21.2112 8.41363 21.2471 8.34697C21.2837 8.28106 21.3357 8.22467 21.4053 8.18216C21.4764 8.14039 21.5518 8.12061 21.628 8.11991C21.7041 8.11846 21.781 8.13824 21.8477 8.17485C21.9151 8.21146 21.9729 8.26569 22.0162 8.336C22.063 8.41363 22.0901 8.51619 22.0909 8.63558C22.093 8.73299 22.074 8.83916 22.0396 8.93952Z" fill="#0F766E"/>
</g>
<defs>
<clipPath id="clip0_206_347">
<rect width="24" height="24" fill="white"/>
</clipPath>
</defs>
</svg>
