<svg width="24" height="24" viewBox="0 0 24 24" fill="none" xmlns="http://www.w3.org/2000/svg">
<path d="M1 21V19.7857C1 17.1032 3.18883 14.9286 5.88889 14.9286H10.7778C13.4778 14.9286 15.6667 17.1032 15.6667 19.7857V21M15.6667 11.2857C17.6918 11.2857 19.3333 9.65475 19.3333 7.64286C19.3333 5.63097 17.6918 4 15.6667 4M23 21V19.7857C23 17.1032 20.8111 14.9286 18.1111 14.9286H17.5M12 7.64286C12 9.65475 10.3584 11.2857 8.33333 11.2857C6.30829 11.2857 4.66667 9.65475 4.66667 7.64286C4.66667 5.63097 6.30829 4 8.33333 4C10.3584 4 12 5.63097 12 7.64286Z" stroke="#0F766E" stroke-width="2" stroke-linecap="round" stroke-linejoin="round"/>
</svg>
