<svg width="24" height="24" viewBox="0 0 24 24" fill="none" xmlns="http://www.w3.org/2000/svg">
<path d="M19.2286 4.25628C18.8999 3.91457 18.367 3.91457 18.0383 4.25628C17.7097 4.59799 17.7097 5.15201 18.0383 5.49373L19.1265 6.62501H16.5294C14.7713 6.62501 13.4805 7.42572 12.4898 8.54938C12.3187 8.74335 12.1558 8.94793 12 9.16054C12.3292 9.75065 12.6231 10.3483 12.8868 10.8971C13.1504 10.4676 13.4279 10.0752 13.7307 9.7319C14.4758 8.8868 15.3416 8.37501 16.5294 8.37501H19.1265L18.0383 9.50629C17.7097 9.84801 17.7097 10.402 18.0383 10.7437C18.367 11.0854 18.8999 11.0854 19.2286 10.7437L21.7535 8.11873C22.0822 7.77702 22.0822 7.223 21.7535 6.88129L19.2286 4.25628Z" fill="#0F766E"/>
<path d="M8.35083 15.0965C8.61029 14.7719 8.85077 14.4033 9.08448 14C9.35249 14.5243 9.65444 15.085 10 15.6386C9.8813 15.8113 9.75877 15.9779 9.63189 16.1366C8.79006 17.19 7.67694 18 6.11257 18H2.82251C2.36825 18 2 17.6288 2 17.171C2 16.7131 2.36825 16.342 2.82251 16.342H6.11257C7.01573 16.342 7.70186 15.9085 8.35083 15.0965Z" fill="#0F766E"/>
<path d="M12.5836 16.7182C13.5646 17.7758 14.8427 18.5294 16.5833 18.5294H19.1549L18.0774 19.5942C17.752 19.9158 17.752 20.4372 18.0774 20.7588C18.4029 21.0804 18.9305 21.0804 19.2559 20.7588L21.7559 18.2882C22.0814 17.9666 22.0814 17.4452 21.7559 17.1236L19.2559 14.653C18.9305 14.3314 18.4029 14.3314 18.0774 14.653C17.752 14.9746 17.752 15.496 18.0774 15.8176L19.1549 16.8824H16.5833C15.4073 16.8824 14.55 16.4007 13.8123 15.6053C13.0436 14.7766 12.4395 13.6448 11.8078 12.3964C11.7577 12.2973 11.7073 12.1971 11.6565 12.0964C11.0933 10.9785 10.4893 9.77969 9.7323 8.85103C8.87939 7.8047 7.75162 7 6.16667 7H2.83333C2.3731 7 2 7.3687 2 7.82353C2 8.27836 2.3731 8.64706 2.83333 8.64706H6.16667C7.08172 8.64706 7.77687 9.07766 8.43438 9.88428C9.07187 10.6663 9.59623 11.7051 10.184 12.8695L10.3172 13.133C10.9355 14.3552 11.6335 15.694 12.5836 16.7182Z" fill="#0F766E"/>
</svg>
