<svg width="24" height="24" viewBox="0 0 24 24" fill="none" xmlns="http://www.w3.org/2000/svg">
<g clip-path="url(#clip0_206_170)">
<path d="M12 1C12 1 3 3.55 3 4V13.1C3 17.7 9.65 21.75 11.5 22.85C11.648 22.9489 11.822 23.0017 12 23.0017C12.178 23.0017 12.352 22.9489 12.5 22.85C14.4 21.8 21 17.7 21 13.1V4C21 3.55 12 1 12 1ZM16.7 9.2L11.2 14.7C11.111 14.797 11.0028 14.8744 10.8823 14.9274C10.7618 14.9804 10.6316 15.0077 10.5 15.0077C10.3684 15.0077 10.2382 14.9804 10.1177 14.9274C9.99717 14.8744 9.88899 14.797 9.8 14.7L7.35 12.25C7.16955 12.0804 7.05163 11.8548 7.01533 11.6098C6.97904 11.3648 7.02649 11.1147 7.15 10.9C7.23612 10.7786 7.34825 10.678 7.4782 10.6055C7.60816 10.5329 7.75266 10.4903 7.90118 10.4807C8.04969 10.4712 8.19848 10.4949 8.33667 10.5501C8.47487 10.6053 8.599 10.6907 8.7 10.8L10.5 12.6L15.3 7.8C15.4926 7.65557 15.7308 7.58545 15.9709 7.60252C16.211 7.61958 16.4369 7.72268 16.6071 7.89289C16.7773 8.0631 16.8804 8.289 16.8975 8.52911C16.9145 8.76922 16.8444 9.00743 16.7 9.2Z" fill="#0F766E"/>
</g>
<defs>
<clipPath id="clip0_206_170">
<rect width="24" height="24" fill="white"/>
</clipPath>
</defs>
</svg>
