<svg width="24" height="24" viewBox="0 0 24 24" fill="none" xmlns="http://www.w3.org/2000/svg">
<path d="M21.0001 6H17.0001C16.7348 6 16.4805 6.10536 16.293 6.29289C16.1054 6.48043 16.0001 6.73478 16.0001 7C16.0001 7.26522 16.1054 7.51957 16.293 7.70711C16.4805 7.89464 16.7348 8 17.0001 8H18.5901L13.5001 13.09L10.9101 10.5C10.5353 10.1275 10.0284 9.91842 9.50006 9.91842C8.97169 9.91842 8.46479 10.1275 8.09006 10.5L2.29006 16.29C2.19633 16.383 2.12194 16.4936 2.07117 16.6154C2.0204 16.7373 1.99426 16.868 1.99426 17C1.99426 17.132 2.0204 17.2627 2.07117 17.3846C2.12194 17.5064 2.19633 17.617 2.29006 17.71C2.38302 17.8037 2.49363 17.8781 2.61548 17.9289C2.73734 17.9797 2.86805 18.0058 3.00006 18.0058C3.13207 18.0058 3.26278 17.9797 3.38464 17.9289C3.5065 17.8781 3.6171 17.8037 3.71006 17.71L9.50006 11.91L12.0901 14.5C12.4648 14.8725 12.9717 15.0816 13.5001 15.0816C14.0284 15.0816 14.5353 14.8725 14.9101 14.5L20.0001 9.41V11C20.0001 11.2652 20.1054 11.5196 20.293 11.7071C20.4805 11.8946 20.7348 12 21.0001 12C21.2653 12 21.5196 11.8946 21.7072 11.7071C21.8947 11.5196 22.0001 11.2652 22.0001 11V7C22.0001 6.73478 21.8947 6.48043 21.7072 6.29289C21.5196 6.10536 21.2653 6 21.0001 6Z" fill="#0F766E"/>
</svg>
