<svg width="24" height="24" viewBox="0 0 24 24" fill="none" xmlns="http://www.w3.org/2000/svg">
<g clip-path="url(#clip0_206_274)">
<path d="M22.3448 3.93103H1.65518C0.855324 3.93103 0.206909 4.57945 0.206909 5.37931V18.6207C0.206909 19.4205 0.855324 20.069 1.65518 20.069H22.3448C23.1447 20.069 23.7931 19.4205 23.7931 18.6207V5.37931C23.7931 4.57945 23.1447 3.93103 22.3448 3.93103Z" fill="white" stroke="#F3F3F3"/>
<path d="M10.6558 15.0758H9.05798L10.0574 9.28241H11.6552L10.6558 15.0758Z" fill="#15195A"/>
<path d="M16.4483 9.42406C16.1331 9.30683 15.6332 9.1774 15.0152 9.1774C13.4372 9.1774 12.326 9.96625 12.3192 11.094C12.3061 11.9261 13.1148 12.3883 13.7196 12.6658C14.3378 12.9493 14.5479 13.1343 14.5479 13.387C14.5416 13.7752 14.0484 13.9541 13.5884 13.9541C12.9504 13.9541 12.6086 13.8618 12.0891 13.6459L11.8788 13.5533L11.6552 14.8538C12.0299 15.0139 12.7204 15.1559 13.4372 15.1622C15.1138 15.1622 16.2053 14.3855 16.2182 13.1837C16.2246 12.5242 15.7976 12.0188 14.877 11.6059C14.3181 11.3408 13.9759 11.162 13.9759 10.8908C13.9824 10.6443 14.2654 10.3917 14.8962 10.3917C15.4157 10.3793 15.7973 10.4964 16.0865 10.6136L16.231 10.6751L16.4483 9.42406Z" fill="#15195A"/>
<path fill-rule="evenodd" clip-rule="evenodd" d="M19.3083 9.28241H20.5442L21.8333 15.0757H20.3538C20.3538 15.0757 20.209 14.4101 20.1632 14.2067H18.1116C18.0523 14.3607 17.7763 15.0757 17.7763 15.0757H16.0997L18.4731 9.76307C18.6376 9.3871 18.9271 9.28241 19.3083 9.28241ZM19.2098 11.4025C19.2098 11.4025 18.7034 12.6906 18.5719 13.0234H19.9C19.8343 12.7338 19.5317 11.347 19.5317 11.347L19.42 10.8478C19.373 10.9764 19.305 11.1531 19.2591 11.2723C19.228 11.3531 19.2071 11.4074 19.2098 11.4025Z" fill="#15195A"/>
<path fill-rule="evenodd" clip-rule="evenodd" d="M2.1347 9.28241H4.70547C5.05397 9.29462 5.33671 9.39939 5.4287 9.7694L5.9874 12.4313L5.98757 12.4317L6.15855 13.2329L7.72339 9.28241H9.41299L6.90143 15.0697H5.21175L3.78758 10.0357C3.2962 9.76638 2.7354 9.54976 2.1084 9.39947L2.1347 9.28241Z" fill="#15195A"/>
</g>
<defs>
<clipPath id="clip0_206_274">
<rect width="24" height="24" fill="white"/>
</clipPath>
</defs>
</svg>
